<svg xmlns="http://www.w3.org/2000/svg" viewBox="0 0 500 500"><g id="freepik--background-complete--inject-80"><path d="M403.93,110.55c1.93,10.89,11.5,19.81,11.5,19.81s12.87-2.36,20.36-10.5c6.25-6.79,6.26-16.09.61-19.77-8.1-5.29-14.9,9.52-14.9,9.52s2.24-16.14-7.44-16C407.31,93.62,402.31,101.47,403.93,110.55Z" style="fill:#ebebeb"></path><path d="M383.14,143.25c-.48,6.95,4,13.86,4,13.86s8.22.53,14-3.29c4.86-3.18,6.29-8.86,3.41-12-4.14-4.47-10.56,3.53-10.56,3.53s3.84-9.51-2.08-10.94C387.8,133.44,383.55,137.46,383.14,143.25Z" style="fill:#ebebeb"></path><path d="M62.79,360.17c5,4.89,13.12,6,13.12,6s5.75-5.9,6.63-12.8c.73-5.76-2.65-10.54-6.89-10.37-6.08.24-4.18,10.31-4.18,10.31s-4.73-9.1-9.66-5.53C58.37,350.25,58.66,356.1,62.79,360.17Z" style="fill:#ebebeb"></path><path d="M348.77,119.41c3.68,2.76,9.13,2.77,9.13,2.77s3.25-4.38,3.23-9c0-3.84-2.66-6.68-5.43-6.2-4,.69-1.84,7.13-1.84,7.13s-3.9-5.55-6.82-2.78C345,113.29,345.71,117.09,348.77,119.41Z" style="fill:#ebebeb"></path><path d="M88.78,181.69c1.17,4.46,5.44,7.84,5.44,7.84s5.26-1.42,8.1-5.05c2.36-3,2.05-6.89-.42-8.23-3.54-1.92-5.86,4.46-5.86,4.46s.38-6.77-3.63-6.41C89.61,174.55,87.8,178,88.78,181.69Z" style="fill:#ebebeb"></path><path d="M393.08,189.69a38.93,38.93,0,0,0-1.19,17c1.78,11.93,10.76,21.38,12.71,33.13-.24,1.41-.54,2.84-.91,4.26a.19.19,0,0,1,0,.07,0,0,0,0,0,0,0h0s0,0,0,0a.2.2,0,0,0,.11.13l.22-.49c.15-.29.28-.59.4-.88s.35-.84.5-1.27c.05,0,.1-.19.1-.25,4.38-12.07.36-25.46-1.68-37.7-1.17-7-.68-14.07-1.72-21-.25-1.67-.24-4.83-2.64-4.19C396.26,179.29,393.76,187.45,393.08,189.69Z" style="fill:#c7c7c7"></path><path d="M394.84,200c-.76,14.52,12.63,27.22,9.52,41.72-.1.41-.2.81-.31,1.22s-.15.56-.24.83h0l-.12.35a.19.19,0,0,1,0,.07,0,0,0,0,0,0,0h0s0,0,0,0a.2.2,0,0,0,.11.13h.05a.14.14,0,0,0,.12-.09c.17-.43.31-.86.45-1.29a19,19,0,0,0,.74-3.21s0,0,0,0c1.4-6.39,1.06-12.73-.29-19.44-1.66-8.24-3.76-16.22-5.26-24.55-.19-1-.19-5.09-1.85-4.55C395.64,191.93,394.93,198.31,394.84,200Zm.72-2.15c.13-.82,1.18-6.28,2.53-5.71.81.34.91,4.47,1,5l1.44,6.73c1,4.72,2.09,9.43,3.11,14.15a62.38,62.38,0,0,1,1.62,17.45C404.55,222.79,393.44,211,395.56,197.83Z" style="fill:#fff"></path><path d="M389.6,329.07c0,.19.16.45.42.29,11-7.08,24.71-1.32,36.1-7.64A58.44,58.44,0,0,0,438.35,312a46.28,46.28,0,0,0,7.44-8.85c.27-.45,1.66-2.24,1.44-3.14-1.75-6.78-19.36,4.69-22.31,6.31-11.52,6.29-22.06,12-32.15,20.07-1,.83-2.1,1.7-3.14,2.59A.15.15,0,0,0,389.6,329.07Z" style="fill:#c7c7c7"></path><path d="M389.6,329.07l1.2-.75c7.56-3.64,16-4.91,24.11-7s15.2-5.52,21.3-11.47c1.07-1.05,5.54-5.08,4.22-7.1-1.18-1.83-5.68,1.68-6.77,2.31-8.18,4.58-16.19,9.23-24.72,13.18-5.45,2.52-11,5-16.17,8.09-1,.83-2.1,1.7-3.14,2.59A.15.15,0,0,0,389.6,329.07Zm5.14-3.07c6-3.36,12.33-6.17,18.59-9.14q6.46-3,12.63-6.62c2.25-1.31,4.5-2.65,6.76-3.94,1.14-.65,2.28-1.29,3.43-1.9.57-.32,2.46-1.4,2.94-.53,1.29,2.36-11.34,14.35-27,17.45A97.4,97.4,0,0,0,394.74,326Z" style="fill:#fff"></path><path d="M407.89,308.24a.11.11,0,0,0,0,.15.12.12,0,0,0,.17,0l.68-.67c.83-.82,1.63-1.65,2.42-2.49l.43-.47c.05,0,.09,0,.12-.05,8.79-9,22.1-11.73,29.59-22.14a50.4,50.4,0,0,0,7.05-15.46c.69-2.35,4.07-9.54,1.11-11.41-2.31-1.44-5.92,1.7-7.43,3-4.78,4.25-8.17,10.19-11.51,15.58s-6.24,10.7-9.35,16.06a103,103,0,0,1-9.82,13.74Q409.66,306.17,407.89,308.24Z" style="fill:#c7c7c7"></path><path d="M407.89,308.24a.11.11,0,0,0,0,.15c.72-.76,1.44-1.51,2.17-2.25l-1.32,1.57c.83-.82,1.63-1.65,2.42-2.49.38-.45.77-.9,1.17-1.34a139.75,139.75,0,0,1,16.19-13.42,29.71,29.71,0,0,0,7.29-7.25c3.68-5.27,9.4-17.69,8.29-19.57s-3.39,2.08-4,2.94c-5.11,7-9.27,14.56-14.76,21.27-3.7,4.51-7.46,9-11.2,13.46-.94.91-1.87,1.84-2.76,2.8Q409.66,306.17,407.89,308.24Zm35.4-44.15c1,.41-.51,3.74-.89,4.62a138.2,138.2,0,0,1-6.18,12.58c-2.42,4.29-5.88,7.12-9.85,9.91a103.39,103.39,0,0,0-9.5,7.55c3.72-4.21,7.4-8.46,10.83-12.88,2.85-3.67,5.33-7.59,7.85-11.49,1.25-2,2.51-3.9,3.85-5.79.36-.52,3-4.86,3.89-4.5" style="fill:#fff"></path><path d="M342.42,363.67a.08.08,0,0,0,.08.1.1.1,0,0,0,.12-.09c.06-.28.11-.55.17-.83.2-1,.37-2,.52-3.06,0-.19.06-.37.08-.55s.06-.06.07-.1c1.93-11.05,10.35-19.78,10.61-31.22a45.06,45.06,0,0,0-2.6-14.93c-.69-2.08-1.82-9.07-4.94-8.95-2.43.1-3.5,4.24-3.93,6-1.39,5.54-.89,11.62-.62,17.26s.8,11,1.21,16.54a92.2,92.2,0,0,1-.3,15.06C342.75,360.47,342.59,362.07,342.42,363.67Z" style="fill:#c7c7c7"></path><path d="M342.42,363.67a.08.08,0,0,0,.08.1c.15-.91.3-1.83.47-2.74-.07.61-.13,1.22-.18,1.82.2-1,.37-2,.52-3.06l.18-1.57a126.15,126.15,0,0,1,5.15-18,26.59,26.59,0,0,0,1.72-9c.05-5.74-2-17.76-3.77-18.59s-1.44,3.25-1.48,4.21c-.25,7.71.52,15.38-.14,23.09-.45,5.18-1,10.37-1.46,15.55-.23,1.15-.45,2.3-.62,3.45C342.75,360.47,342.59,362.07,342.42,363.67Zm1.82-11.51c.61-5,1.17-10,1.48-14.94.24-4.14.09-8.27,0-12.41-.07-2.07-.12-4.13-.09-6.2,0-.56-.23-5.1.6-5.27s1.51,3,1.67,3.85c.77,4.06,1.44,8.24,1.8,12.37.38,4.38-.74,8.2-2.26,12.26A91.24,91.24,0,0,0,344.24,352.16Z" style="fill:#fff"></path><path d="M341.14,372.83a1.65,1.65,0,0,0,.86-.29c11.25-4.31,23.55-4.5,34.85-8.8A32.81,32.81,0,0,0,390,355.09c1.51-1.72,6.73-7.61,5.58-10.35-3.44-8.22-41.4,17.69-53.88,27a2.15,2.15,0,0,0-.57.39C340.74,372.49,340.79,372.81,341.14,372.83Z" style="fill:#c7c7c7"></path><path d="M341.14,372.83c.84-.45,1.68-.92,2.52-1.38,2.73-1.09,5.48-2.14,8.3-3,4.45-1.41,9-2.24,13.56-3.38a43.16,43.16,0,0,0,19-10.13c1.17-1.07,4.63-3.93,3.88-5.94-.69-1.83-3.53,0-4.53.45-14.27,6.82-28.16,14.64-42,22.33-.25.13-.49.24-.72.37C340.74,372.49,340.79,372.81,341.14,372.83Zm6.63-3.63q8.13-4.41,16.27-8.78,6.39-3.41,12.8-6.77c2.12-1.1,4.21-2.24,6.35-3.31.84-.42,4.09-2.08,4.39-.9s-1.94,3.36-2.34,3.78c-6.42,6.59-14.64,10-23.46,11.95A104.51,104.51,0,0,0,347.77,369.2Z" style="fill:#fff"></path><path d="M395,277.79a.5.5,0,0,0,0,.44.56.56,0,0,0,.49.34.54.54,0,0,0,.33,0,.24.24,0,0,0,.19-.06c5.31-5.2,13.42-10,18.88-15a57.5,57.5,0,0,0,10.54-13.29,77.57,77.57,0,0,0,7.77-17.28c.86-2.88,3.34-9.68,1-12.51-4.8-5.83-14.51,15.36-15.9,17.73C410.48,251.31,402.69,264.51,395,277.79Z" style="fill:#c7c7c7"></path><path d="M395,278.23a.56.56,0,0,0,.49.34c.31-.44.62-.9.94-1.34,2.07-2.44,4.15-4.88,6.37-7.21,3.6-3.8,7.72-7.08,11.2-11,6.06-6.81,17.43-28.5,14.16-30.66-1.71-1.13-3.81,3.34-4.43,4.39-2.45,4.18-4.35,8.64-6.85,12.79-2.61,4.37-5.48,8.57-8.33,12.78-4.41,6.47-8.84,12.92-13.18,19.44C395.22,277.92,395.11,278.07,395,278.23Zm4.36-5.26c3.92-5.72,7.79-11.47,11.68-17.22,2.67-4,5.32-8,7.71-12.13,1.33-2.33,2.52-4.73,3.72-7.13.58-1.17,1.17-2.34,1.83-3.47.57-1,2.7-5,3.65-3.54s-1.92,7.84-2.59,9.32c-1.11,2.42-2.24,4.81-3.47,7.17a62,62,0,0,1-8.72,13c-3.51,3.88-7.62,7.17-11.16,11C401.1,271,400.21,272,399.34,273Z" style="fill:#fff"></path><path d="M331.35,288.36c9.77,10.62,25.54,13.56,31.29,32.17,0,.07.1.07.14,0a.06.06,0,0,0,0-.07c-.36-1.88-.78-3.75-1.28-5.6A81.51,81.51,0,0,0,348,287a61.44,61.44,0,0,0-13.19-12.92c-2.58-1.83-8.15-6.48-11.37-5.76C316.53,269.86,329.57,286.43,331.35,288.36Z" style="fill:#c7c7c7"></path><path d="M331.94,281.82c3.93,7.72,11.74,12.72,17.71,18.73a70.42,70.42,0,0,1,10.81,13.67c.81,2.09,1.57,4.2,2.32,6.34a.06.06,0,0,0,0-.07c-.36-1.88-.78-3.75-1.28-5.6-.06-.1-.11-.21-.17-.3a86.76,86.76,0,0,0-8.12-16.24,89.06,89.06,0,0,0-16.11-19.1c-1.07-1-4.62-5.18-6.46-4.1S331.39,280.75,331.94,281.82Zm-.66-6c1.34-.51,7.61,5.72,10.06,8.26A89,89,0,0,1,355,302.33a82.05,82.05,0,0,1,4.28,8.87,71.35,71.35,0,0,0-7.06-8.85c-5.39-5.77-12.13-10.39-17-16.59a24.81,24.81,0,0,1-3.24-5.27C331.6,279.73,330.05,276.29,331.28,275.83Z" style="fill:#fff"></path><path d="M343.47,230.42a66.44,66.44,0,0,0-.11,15.63,65.33,65.33,0,0,0,10.22,28.16l.29.46c.09.49.18,1,.31,1.48,0,.11,0,.21.07.33l0,.07h0a.13.13,0,0,0,.22-.1c0-.61,0-1.23,0-1.84.19-12.57,2.52-24.89.83-37.48-.37-2.75-2.16-20.75-8.45-17.67C344,220.9,343.79,227.8,343.47,230.42Z" style="fill:#c7c7c7"></path><path d="M346,233c-.43,7.75,1.6,16.07,3.19,23.62a176.24,176.24,0,0,0,4.41,17.64c.14.47.3,1,.45,1.42,0,.17.09.34.15.52a2,2,0,0,0,.1.4h0a.13.13,0,0,0,.22-.1c0-.61,0-1.23,0-1.84-.12-.46-.26-.92-.38-1.38-.92-6.85-.83-13.71-.77-20.66,0-3.74,0-7.47-.36-11.2s-.48-7.45-1.6-10.9c-.49-1.5-1.5-4.47-3.61-3.37C346,228,346.08,231.31,346,233Zm4.62-2.61c1.33,4.07,1.53,8.85,1.81,13.11.29,4.08.24,8.18.2,12.26,0,4.33-.08,8.73.31,13.07-1.49-5.45-2.92-10.91-4-16.51-.84-4.38-1.56-8.78-2.07-13.2a33.57,33.57,0,0,1-.23-6.87,19.71,19.71,0,0,1,.33-2.43C347.52,227.25,350,228.5,350.6,230.34Z" style="fill:#fff"></path><path d="M420.69,197.76c-.05.2-.08.4-.13.6a.36.36,0,0,0,.47.41.34.34,0,0,0,.27-.28c.09-.36.17-.73.26-1.09h0l.21-.88a16,16,0,0,1,.87-1.43c3.34-5.05,9.11-9.32,13-13.62a79.81,79.81,0,0,0,9.68-12.59,39.18,39.18,0,0,0,5.62-15c.18-1.44.86-5.08-.94-6-2.28-1.15-5.76,3.22-7,4.36a65.56,65.56,0,0,0-10.88,13.5C426.07,175.65,423,186.46,420.69,197.76Z" style="fill:#c7c7c7"></path><path d="M421.7,195.26a23.33,23.33,0,0,0-1,2.5c-.05.2-.08.4-.13.6a.36.36,0,0,0,.47.41c0-.14.09-.28.14-.42.13-.32.25-.64.39-.95h0c.34-.79.7-1.55,1.08-2.31a52.41,52.41,0,0,1,4.89-7.78c3.2-4.27,6.56-8.43,9.6-12.82,1.53-2.2,13.25-19.15,8.64-20.77-.87-.32-1.71.85-2.17,1.33a34.38,34.38,0,0,0-4.21,5.68c-2.94,4.59-5.71,9.31-8.32,14.09A150.29,150.29,0,0,0,421.7,195.26Zm8.39-17.51c2.23-4.25,4.61-8.41,7.08-12.51,1.21-2,2.42-4,3.74-5.94.65-1,3.94-5.26,4.84-4.7,1.33.83-1.81,7.53-2.77,9.33-1.09,2.06-2.28,4.06-3.52,6-2.5,4-5.27,7.75-8.12,11.47-2.5,3.3-5.5,6.8-7.85,10.59A149.82,149.82,0,0,1,430.09,177.75Z" style="fill:#fff"></path><path d="M380.41,256.76c.06.2.13.38.2.58a.36.36,0,0,0,.61.12.34.34,0,0,0,.09-.38L381,256h0c-.09-.29-.17-.58-.26-.87a13.35,13.35,0,0,1,0-1.67c.35-6,3.21-12.63,4.44-18.32a80.34,80.34,0,0,0,2.06-15.75,39.1,39.1,0,0,0-2.68-15.8c-.57-1.34-1.8-4.83-3.82-4.71-2.55.15-3.36,5.67-3.85,7.27a65.5,65.5,0,0,0-2.64,17.14C374,234.93,376.7,245.85,380.41,256.76Z" style="fill:#c7c7c7"></path><path d="M380,254.08a23.36,23.36,0,0,0,.38,2.68c.06.2.13.38.2.58a.36.36,0,0,0,.61.12c0-.14-.07-.29-.1-.44,0-.34-.09-.67-.14-1h0c-.1-.85-.17-1.69-.22-2.54a51.85,51.85,0,0,1,.32-9.18c.63-5.3,1.45-10.58,1.88-15.91.21-2.67,1.84-23.21-3-22.3-.91.16-1.05,1.59-1.21,2.24a35.28,35.28,0,0,0-.79,7c-.24,5.45-.27,10.92-.13,16.37A151.15,151.15,0,0,0,380,254.08Zm-1.53-19.35c-.2-4.79-.23-9.58-.15-14.37,0-2.33.08-4.68.25-7,.08-1.15.77-6.52,1.84-6.49,1.56.06,2.21,7.42,2.28,9.46.09,2.33.07,4.66,0,7-.18,4.68-.67,9.35-1.26,14-.52,4.11-1.36,8.64-1.48,13.1A152.15,152.15,0,0,1,378.5,234.73Z" style="fill:#fff"></path><path d="M353,265.2a293.17,293.17,0,0,0,6.62,32.28c2.23,8.23,4.48,16.57,4.8,25.14.38,10.23-2.58,21.59-7.78,31.4q4.5-5,8.91-10.2c6-7,11.94-14.23,16.19-22.47.41-.81.8-1.64,1.18-2.47a.27.27,0,0,1,0-.2A111.51,111.51,0,0,0,385,285.54,92.74,92.74,0,0,0,377.78,269c-3-5.45-5.88-10.75-7.47-16.82a.28.28,0,0,1,.53-.2c3.05,8,9.34,15.82,13,24.13-.21-1.37-.44-2.74-.69-4.12-2.41-13.16-7-26.38-2.15-39.54.16-.44.79-.14.66.29-4.54,14.66,2.6,30.8,4.71,45.36,1.58,10.83,2.1,22.5-.52,33.29a175.51,175.51,0,0,0,4.82-18.21c8.29-36.93,17.87-73.66,35.82-107.23.18-.32.7-.1.53.24-18.38,36.43-25.66,76-35.24,115.27-.11.45-.23.89-.34,1.33A74.12,74.12,0,0,1,403,288.8c.21-.21.55.05.36.29-5.27,6.75-9.29,14.13-14,21.18a76.83,76.83,0,0,1-6.87,15.8,124.94,124.94,0,0,1-12.22,16.72c7.49-6.29,15.06-12.49,22.11-19.34a333.48,333.48,0,0,0,30-33c.14-.17.38,0,.26.22a281.08,281.08,0,0,1-29.84,35.6c-9.33,9.28-19.33,18.74-30.54,25.86-10.7,12.33-22.16,24.72-35.7,33.74a.59.59,0,0,1-.69-1c2.49-2.21,4.91-4.45,7.31-6.72,2.34-5.23,5.58-10,7.66-15.42a85,85,0,0,0,5-19.65c.06-.49.79-.37.76.12-.56,9.19-2.63,20.51-7.54,29.29q5.14-5.09,10.08-10.33c8.8-13.43,14.53-29.4,12.61-45.48-1-8.25-3.37-16.23-5.3-24.3a179.07,179.07,0,0,1-4.05-27.16A.31.31,0,0,1,353,265.2Z" style="fill:#c7c7c7"></path><path d="M154.89,224.91c1.77,4.88,1.41,10.89,1.19,16a126.19,126.19,0,0,1-2,17.33c-1,5.34-2.2,10.62-3.51,15.87,0,.05,0,.1-.05.15-.08.35-.17.69-.26,1s-.1.86-.18,1.3a.26.26,0,0,1-.22.22c-.15,0-.29-.06-.27-.24s.05-.48.06-.71c.86-9.85-4.83-18.85-5.17-28.61-.19-5.36,1.1-10.72,2.1-15.94.55-2.9.69-6.65,1.81-9.37.3-.72.37-1.5,1.18-1.89C152,218.85,154.28,223.21,154.89,224.91Z" style="fill:#c7c7c7"></path><path d="M152.56,228.57c-1.55-1.28-2.46,2.26-2.76,3.22-2,6.51-3.17,14.26-2,21,1.27,7.4,2.61,14.81,2.06,22.31-.07.24-.14.49-.22.73s0,.47-.06.71.12.26.27.24,0-.3.06-.45c.22-.69.42-1.4.6-2.1,0-.05,0-.1.05-.15a141.49,141.49,0,0,0,2.59-15.36A98.89,98.89,0,0,0,154.29,237a50.81,50.81,0,0,0-.65-5.23C153.48,230.89,153.32,229.19,152.56,228.57Zm.87,4.39c.28,1.83.46,3.67.56,5.52a101,101,0,0,1-1.11,19.1,140.91,140.91,0,0,1-2.71,16.36,57.34,57.34,0,0,0-.55-12.81c-.44-3.2-1.11-6.35-1.59-9.55a35.93,35.93,0,0,1,.39-10.75,45,45,0,0,1,2.15-10c.25-.64,1-2,1.52-2C153.06,229.1,153.33,232.23,153.43,233Z" style="fill:#fff"></path><path d="M110.63,300.19s0,0,0,0" style="fill:#c7c7c7"></path><path d="M150.1,368.28a.24.24,0,0,1,.11.29h0a.27.27,0,0,1-.2.19.38.38,0,0,1-.21,0c-6-3.05-11.79-7.9-18.78-8.26-5.46-.29-10.16.39-15.35-1.85a41.25,41.25,0,0,1-13.89-10,42.31,42.31,0,0,1-4.73-6.26c-.66-1.07-2.82-3.73-2.52-5.1,1.41-6.41,20.43,5,23,6.53,11.19,6.81,22.57,14.46,31.91,23.7a.09.09,0,0,1,0,.11.2.2,0,0,1-.06.11Z" style="fill:#c7c7c7"></path><path d="M150.1,368.28l-.74-.51a.2.2,0,0,0,.06-.11c-6.18-4.69-12.74-9-19.33-13-7.07-4.4-14.32-8.9-21.92-12.33-1-.47-5.36-3.06-6.27-1.38s3.59,5.51,4.55,6.37c5.64,5.05,13,7.36,20.12,9.45,4.62,1.36,9.16,2.65,13.3,5.21,3.47,2.14,6.69,4.67,10.14,6.83a.27.27,0,0,0,.2-.19c-1.77-1.12-3.48-2.36-5.18-3.58,1.73,1.18,3.46,2.38,5.18,3.57A.24.24,0,0,0,150.1,368.28Zm-15.59-9.53c-6.92-2.7-14.35-3.88-21-7.29a29.59,29.59,0,0,1-8.61-6.39c-.47-.51-2.72-2.78-2.21-3.68.34-.6,2.14-.05,2.4.06a52.7,52.7,0,0,1,5.75,2.56c6.52,3.33,12.85,7.09,19.06,10.94,3.45,2.14,6.83,4.37,10.18,6.65A34.58,34.58,0,0,0,134.51,358.75Z" style="fill:#fff"></path><path d="M122.58,235.58c.75,5.79-.41,11.82-2,17.39-3.65,12.87-10.71,24.83-13,38.1-.09.52-.17,1.05-.24,1.56.12.69,0,.53-.19-.28,0,0,0,0,0,0-1-3.53-4.32-19.09-2.79-30.26,1-7,3.36-13.55,5.77-20.12,1.38-3.75,2.73-7.51,4.13-11.25.45-1.2,1.09-4.62,2.9-4.88C120.72,225.3,122.28,233.32,122.58,235.58Z" style="fill:#c7c7c7"></path><path d="M116.5,236.74a1.18,1.18,0,0,0-1.56.41,6,6,0,0,0-.76,2.28c-.36,1.37-.71,2.73-1.06,4.09-2.44,9.43-5.72,19-6.63,28.78a80.93,80.93,0,0,0,.7,19.41c0,.21,0,.42,0,.63,0,0,0,0,0,0,.22.81.31,1,.19.28.07-.51.15-1,.24-1.56,0-.72,0-1.45.07-2.17.3-5,1.74-9.86,3.29-14.63,2.92-9.06,5.51-18.29,6.64-27.77a28.48,28.48,0,0,0,.22-6.39C117.75,239.15,117.52,237.26,116.5,236.74Zm.85,3a9.47,9.47,0,0,1,.13,1.4,25.21,25.21,0,0,1-.07,3,69.75,69.75,0,0,1-1,7.21c-1.5,8.54-4,16.7-6.59,25a53,53,0,0,0-2.59,12.51,107.43,107.43,0,0,1-.54-10.74c0-9.19,2.6-17.88,4.86-26.71l1.69-6.55.84-3.28.42-1.64c.27-1.09.11-1.55,1.34-1.89C117.37,237.66,117.14,238.51,117.35,239.79Z" style="fill:#fff"></path><path d="M131.75,289.39a72.09,72.09,0,0,1,3.51,13.21c1.5,9,.11,19.47,2.49,28.47.21.58.4,1.19.56,1.79.07.23.13.45.18.68s-.16.18-.22.07q-.27-.57-.57-1.14s0,0,0,0c-.09-.2-.2-.4-.3-.6-4.48-8.76-10.22-16.77-12.12-26.61-1.18-6.05-3-22.74.94-24C128,280.67,130.77,286.8,131.75,289.39Z" style="fill:#c7c7c7"></path><path d="M128.11,290.28c-1,.45-.91,2.32-1,3.1a37,37,0,0,0,.22,6.22,61.7,61.7,0,0,0,2.25,11.34,123.19,123.19,0,0,0,7.78,20.91c.1.2.21.4.3.6,0,0,0,0,0,0q.3.57.57,1.14c.06.11.25.05.22-.07s-.11-.45-.18-.68c-2.94-7.72-4.17-15.83-5.2-24C132.89,307,131.39,288.72,128.11,290.28Zm3,7.41c.28,1.72.53,3.44.75,5.18.54,4,1,8.09,1.59,12.12a92,92,0,0,0,2.74,13,156.52,156.52,0,0,1-5.48-14.88A82.63,82.63,0,0,1,128.23,303a42.61,42.61,0,0,1-.58-5.64c0-.91-.42-6.14.66-6.58C129.66,290.2,131,296.94,131.1,297.69Z" style="fill:#fff"></path><path d="M169.91,271.57c2.21,2.72,1.16,8.12,0,11-1.71,4.09-4.83,7.28-8.26,10-5,3.94-10.52,7-14.71,11.82s-2.81,3.36-5.73,9.53c-.05.12-.17.12-.26,0a1.16,1.16,0,0,1-.18-1,.88.88,0,0,1,0-.16c2.68-10.14,7.88-18.12,14.77-26,3.91-4.48,6.27-10.16,10.35-14.48C167.39,270.65,168.39,269.7,169.91,271.57Z" style="fill:#c7c7c7"></path><path d="M167.57,276.9c-1.49-.71-3.37,2.32-4.13,3.42a63.59,63.59,0,0,1-7.12,9.05,78.76,78.76,0,0,0-7,7.43,50.73,50.73,0,0,0-7.54,13.57,26.35,26.35,0,0,0-1.08,2.55,1.16,1.16,0,0,0,.18,1c0-.12.07-.22.1-.34,2.43-6.51,6.57-11.51,12.29-15.84s11-9.08,14.06-15.68C167.91,280.88,169,277.56,167.57,276.9Zm-.24,4.31a27.15,27.15,0,0,1-1.69,3.31,35.06,35.06,0,0,1-4,5.39,63.07,63.07,0,0,1-8.95,7.77,37.87,37.87,0,0,0-9.37,10,51.84,51.84,0,0,1,7.05-11.52c2.56-3.14,5.69-5.68,8.32-8.72C159.89,286,161,284.49,162,283l1.72-2.46c.51-.73,2.13-3.31,3.22-3.1C168.39,277.69,167.53,280.75,167.33,281.21Z" style="fill:#fff"></path><path d="M77.07,246c9,10.12,17.29,20.76,25.22,31.7a.34.34,0,0,1,0,.42.1.1,0,0,1,0,.07,1.37,1.37,0,0,1,.15.21.15.15,0,0,1-.05.21l0,0h0a.17.17,0,0,1-.15-.05c-5.59-5.47-10.85-10.6-17.88-14.22-6.43-3.31-12.77-6.06-18.36-10.77-4.77-4-18.3-23.89-16.09-28.63C51.28,221.76,69.93,238,77.07,246Z" style="fill:#c7c7c7"></path><path d="M66,239.23c-1.17-1.12-4.6-5.57-6.78-4.67s1.29,5.4,1.94,6.35a65.13,65.13,0,0,0,8,9.86c3,2.94,6.61,4.9,10.11,7.2,8.59,5.68,16.17,13.07,23.07,20.66h0l0,0a.15.15,0,0,0,.05-.21,1.37,1.37,0,0,0-.15-.21.1.1,0,0,0,0-.07C91.48,264,78.66,251.57,66,239.23Zm35.56,38.44a146.28,146.28,0,0,0-15.24-14.84c-6.32-5.29-14-8.7-19.42-15a49.1,49.1,0,0,1-7.16-9.94c-.24-.48-1.13-2.1-.53-2.74s2.07.14,4,1.91c1.6,1.47,3.12,3,4.67,4.55,6.11,6,12.19,12,18.06,18.18Q94.06,268.44,101.53,277.67Z" style="fill:#fff"></path><path d="M114.35,320.16a.18.18,0,0,1,0,.14.24.24,0,0,1-.3.16c-.28-.1-.57-.18-.85-.27l-.08,0c-6.41-.83-11.61.26-17.78,1.83a28.15,28.15,0,0,1-13.86,0,47.15,47.15,0,0,1-14-6.31c-1.76-1.13-7.4-3.66-6.48-6.74,1.51-5.08,18.6,1.53,21.55,2.49a134.3,134.3,0,0,0,16,4.28c5.36,1,10.72,1.92,15.7,4.24A.18.18,0,0,1,114.35,320.16Z" style="fill:#c7c7c7"></path><path d="M111,319.38h0c-3.09-.71-6.18-1.55-9.3-2.09-3.49-.61-7.07-.54-10.58-1.14-6.57-1.14-12.82-3.52-19.31-5-.85-.18-2.52-.51-2.07.93.18.63,1.09,1.13,1.56,1.47a30.45,30.45,0,0,0,4.58,2.68c5.41,2.59,11.69,4.47,17.74,4.2,7-.32,13.82-1.64,20.75-.15a.18.18,0,0,0,0-.14A20.93,20.93,0,0,0,111,319.38Zm-15.18.42a38.58,38.58,0,0,1-22-5.19,32.39,32.39,0,0,1-2.83-1.89c-.54-.45-1.32-1.42.74-1.16a12.08,12.08,0,0,1,1.44.35c1.67.42,3.34.88,5,1.36,3.55,1,7.1,2.08,10.72,2.84a67.47,67.47,0,0,0,9.73,1.16,78.16,78.16,0,0,1,11.73,2C105.49,318.69,100.55,319.42,95.77,319.8Z" style="fill:#fff"></path><path d="M95.88,306.26a.61.61,0,0,1,0,.3.39.39,0,0,1-.06.15.46.46,0,0,1-.11.16l0,0a.46.46,0,0,1-.46,0,19.89,19.89,0,0,1-2.73-1.23c-10.61-4.05-21.49-8.33-30.13-15.83A69.18,69.18,0,0,1,50.82,276.8c-1.63-2.35-6.11-7.29-4.63-10.59s4.38-1.17,6.37.17a151.64,151.64,0,0,1,14.87,11.23,82.49,82.49,0,0,1,12.43,13.51c4.34,5.93,8.51,12.08,15.67,14.77A.52.52,0,0,1,95.88,306.26Z" style="fill:#c7c7c7"></path><path d="M76.28,291.25a180.63,180.63,0,0,0-19.41-17.57c-.88-.7-3.44-2.52-3.84-.48-.46,2.4,3.09,5.23,4.44,6.66a137.26,137.26,0,0,0,16.61,15.08,76.61,76.61,0,0,0,21.75,11.77.39.39,0,0,0,.06-.15c-12.85-4.77-24-13.12-33.72-22.65-2.35-2.3-4.72-4.62-6.86-7.1-.35-.4-2.31-3.08-1.55-3.81s3.44,1.55,3.77,1.83c1.55,1.28,3.09,2.56,4.63,3.86a211.68,211.68,0,0,1,16.35,15.63,51.94,51.94,0,0,0,17.38,12.24.61.61,0,0,0,0-.3C88.1,302.84,82.08,297.44,76.28,291.25Z" style="fill:#fff"></path><path d="M76.36,195.85c3.58,4.9,6.69,10,8.39,15.9,2.59,9,2.44,18.35,3.72,27.52a.36.36,0,0,0,0,.11,60.83,60.83,0,0,0,1.45,7.4c.13.52.28,1,.44,1.56a.37.37,0,0,1,0,.32.53.53,0,0,1-.21.11.37.37,0,0,1-.23,0h0a.37.37,0,0,1-.25-.24c-.26-.74-.49-1.48-.71-2.22a.19.19,0,0,1-.12-.1c-5.47-11.45-11.69-23-17.91-34.35a91.43,91.43,0,0,1-7.08-15.66c-1-3.23-2.33-8.21,0-11.19a.74.74,0,0,1,.63-.34C69.65,185.54,73.53,192,76.36,195.85Z" style="fill:#c7c7c7"></path><path d="M70.64,196.57c-2.48-.79-2,2.14-1.57,3.62a102.37,102.37,0,0,0,4.37,11.57q2.61,6.41,5.4,12.73c3.52,8,8.43,15.88,11,24.23v0h0a.37.37,0,0,0,.23,0,.53.53,0,0,0,.21-.11l-.39-1.88q-.73-3.71-1.45-7.4a.36.36,0,0,1,0-.11c-2.35-11.88-4.93-23.65-11.17-34.55C75.84,202.19,73.69,197.55,70.64,196.57ZM78.06,207a86.52,86.52,0,0,1,7.88,21.76c1.36,6,2.28,12.1,3.53,18.13C87.74,242,85.21,237.4,83,232.72q-5.13-11-9.68-22.32c-.74-1.81-1.45-3.63-2.15-5.45-.63-1.61-2-4.13-2-5.89,0-3.42,2.84-1.1,3.77-.09a20.13,20.13,0,0,1,2.09,2.92C76.15,203.54,77.14,205.24,78.06,207Z" style="fill:#fff"></path><path d="M152.09,257.62a248.73,248.73,0,0,1-6.77,33.08c-2.79,10-5.68,19.93-7,30.21-1.79,13.66-.56,28.62,6.4,40.5a161,161,0,0,1-27.42-45.84c-11.22-28.17-21.38-57.12-35-84.26-.22-.45-.85-.1-.68.35,5.58,14.82,12.14,29.27,17.85,44s10.94,29.53,16.87,44.09c.65,1.58,1.31,3.14,2,4.68-8.69-10.78-21.44-18.72-34-23.32-.16-.06-.22.18-.07.25a88.11,88.11,0,0,1,24.13,16c6.23,5.74,11,12.39,16,19.12A135.64,135.64,0,0,0,171.72,386a.2.2,0,0,0,.21-.33A135.28,135.28,0,0,1,150,367.26c-11.19-14.81-11.72-34.59-8.38-52.56,1.75-9.42,4.24-18.68,6.48-28s4.73-19.29,4.5-29.07A.27.27,0,0,0,152.09,257.62Z" style="fill:#c7c7c7"></path></g><g id="freepik--Shadow--inject-80"><ellipse cx="250" cy="440.78" rx="130.66" ry="20.01" style="fill:#ebebeb"></ellipse></g><g id="freepik--Smoke--inject-80"><path d="M100.07,134.55l5.11.91c-3.69-.85-7.21-1.61-10.57-2.47s-6.5-1.85-9.52-3l-2.21-.92a23.56,23.56,0,0,1-2.17-1c-.7-.35-1.42-.66-2.12-1l-2-1.15a17.85,17.85,0,0,1-2-1.21l-2-1.25-1.89-1.4-1-.69c-.15-.11-.33-.23-.46-.34l-.38-.32A27.68,27.68,0,0,1,63.63,115a27.7,27.7,0,0,1-4.71-14.44,27.06,27.06,0,0,1,.71-7.26,30.47,30.47,0,0,1,2-4.08,28.68,28.68,0,0,1,3.15-5.86,23.4,23.4,0,0,1,2.24-2.7A26.87,26.87,0,0,1,70,78.13a23.37,23.37,0,0,1,7.23-3.51,27.23,27.23,0,0,1,4.21-.78,31.69,31.69,0,0,1,4.36-.06,50.76,50.76,0,0,1,7.69,1c1,.22,1.8.45,2.35.63s.85.27.85.27c1.52.64,3,1.44,1.82.37a33.2,33.2,0,0,0-6-3.48c-2.19-1-4.08-1.66-4-2a10.65,10.65,0,0,1,3.12,1c.11-.22,1.44-.1,2.87.41a13.15,13.15,0,0,1,3.62,1.89,19.38,19.38,0,0,1,5,4.78,13.57,13.57,0,0,1,2,3.82,11,11,0,0,1,.39,1.59l.1,1c.09,1.3.09,1.3,0,.46-.05-.42,0-1-.11-1.85a14.18,14.18,0,0,0-.58-2.77c-1.15-4.18-4.85-9.29-7.72-11.86s.32-.51.49-.73c-1.49-1.26-2.63-2.24-3.85-3.13a22.42,22.42,0,0,0-4.3-2.65,2.05,2.05,0,0,0-.47-.28c-.31-.17-.76-.4-1.33-.68s-1.26-.56-2-.88-1.67-.63-2.62-.89a33.75,33.75,0,0,0-6.22-1.25,30.86,30.86,0,0,0-3.12-.17A24.38,24.38,0,0,0,71,58.5l-.45.06c-.31,0-.79.11-1.47.24s-1.58.26-2.7.54a38.47,38.47,0,0,0-4.08,1.13c-2.11.76-2,1-1.89,1.2l-.22-.43c-.92.66-2.44,1.29-4,2.13l-1.14.6-1,.65a10.6,10.6,0,0,0-1.69,1.23l-.34-.4c-.84.8-1.73,1.54-2.57,2.35s-1.7,1.59-2.52,2.43S45.37,72,44.6,72.83a24.23,24.23,0,0,0-2,2.87l-.51-.29c-1.31,2-2.35,4-2.63,3.92L39,79.09a19.07,19.07,0,0,0-1.88,4c-.53,1.39-.88,2.51-1.17,2.43l.59.16A55.7,55.7,0,0,0,34,108.8a44.08,44.08,0,0,0,3.85,14.56A46.07,46.07,0,0,0,47.3,136.9a48.24,48.24,0,0,0,6.49,5.46l3.15,2,1.59,1c.54.31,1.1.6,1.65.89L63.5,148c1.14.52,2.29,1,3.42,1.47.57.24,1.14.49,1.71.71l1.73.6c1.16.38,2.3.8,3.44,1.12,2,.62,4.22.58,2.44-.64,2,.64,4,1.08,6,1.54a5.39,5.39,0,0,0,3.06.09,6.5,6.5,0,0,1,3,0c7.76.74,15.09.56,21.21,1l1.15.08,1.08.11c.72.08,1.46.14,2.09.27l1,.17c.16,0,.36,0,.48.07l.37.09.75.15.75.26c.53.13,1,.44,1.57.63s1.06.54,1.58.91a16.14,16.14,0,0,1,1.6,1.13c.54.38,1,.86,1.59,1.33a43.13,43.13,0,0,1,6,6.85,89.18,89.18,0,0,1,5.29,8.34,179.1,179.1,0,0,1,9.11,18.81c-2.8-6.58-4.71-11.41-7.94-17.44.12,0,.33-.12-.44-1.63a71.43,71.43,0,0,0-8-12.59,51.26,51.26,0,0,0-4-4.34c-.61-.56-1.16-1.11-1.67-1.53s-.93-.85-1.29-1.21-1-.93-1.73-1.57a9,9,0,0,0-1.5-.88c-.31-.13-.65-.27-1-.41l-1.51-.37c.7.18,1.54.3,2.09.51l.93.29.91.38.35-.66c-2.3-1.22-5.85-2-9.5-2.6s-7.56-1-11.06-1.51l.12-.9c-1.18-.14-2.34-.24-3.52-.41-1.61-1.31,2.43-1.2,7.86-.87,2.71.19,5.79.45,8.66.91.72.09,1.41.25,2.1.38s1.37.25,2,.43l1.83.47L119,148l.4-.93c-.54-.21-1.07-.43-1.62-.63l-1.67-.48.14-.51a21,21,0,0,1,7,3.17,28.92,28.92,0,0,1,5.42,4.92,40.79,40.79,0,0,1,4.25,5.92,63.78,63.78,0,0,1,3.49,6.75c-.7-1.61-2.28-4.73-3.18-6.24.16-.1.32-.19-.58-1.71,3.76,6,6.74,14.32,8.63,21,.26.83.34.81.22-.06a47.67,47.67,0,0,0-1.08-5.18,73.48,73.48,0,0,0-5.06-13.27l.32-.18a90.67,90.67,0,0,1,4.48,11.67c.62,1.67-.64-3.55,0-1.89l1.47,5.14a79.91,79.91,0,0,0-2.47-8.59,88.23,88.23,0,0,0-3.48-8.43c-.68-1.73-1.48-3.47-1.16-3.71a49.45,49.45,0,0,0-4.06-5.64c-.69-.88-1.48-1.68-2.22-2.49s-1.56-1.55-2.39-2.24a27.6,27.6,0,0,0-2.51-2c-.43-.3-.84-.62-1.28-.89l-1.32-.8c-.92-.57-1.62-.92-2.39-1.36s-1.48-.86-2.15-1.21a14.84,14.84,0,0,0-2.65-1c-1.21-.33-2.78-.74-4.34-1C106,135.49,102.56,135,100.07,134.55Z" style="fill:#C53F3F"></path><path d="M155.44,169.78l-.12,2.89c0,1,.05,2,.07,2.94a46.7,46.7,0,0,1,1.42-12.12c.25-1,.58-1.89.85-2.83s.71-1.81,1-2.72c.76-1.85,1.73-3.82,2.73-5.72,4-7.67,9.92-15.59,15.07-25.12a93.87,93.87,0,0,0,6.63-15.26,81.71,81.71,0,0,0,2.22-8.2A65.91,65.91,0,0,0,186.59,95a66.68,66.68,0,0,0-.9-17.22A57.48,57.48,0,0,0,180,61.21c-.34-.67-.74-1.53-1.24-2.45s-1.06-1.93-1.72-2.9a38.15,38.15,0,0,0-3.85-5.07,37,37,0,0,0-18.09-10.08,39.27,39.27,0,0,0-10.59-.81,43,43,0,0,0-9.89,1.79,40.76,40.76,0,0,0-9.39,4.15,33.4,33.4,0,0,0-7.87,6.74,31.74,31.74,0,0,0-5.12,8.25,36.64,36.64,0,0,0-2.39,8.36,36.27,36.27,0,0,0,.46,13c.31,1.55.65,2.75.88,3.58l.38,1.26c.65,2.38,1.51,4.63,1.13,2.3a49,49,0,0,1-.82-10.1c.08-3.62.81-6.64,1.08-6.56a4.69,4.69,0,0,1-.13,1.52c-.08.91-.26,2.1-.31,3.3.12,0,.25.48.36,1.2s.25,1.68.38,2.71c.24,2.06.57,4.35.65,5.49a79.18,79.18,0,0,0,1.78,9,44.6,44.6,0,0,0,1.76,5.34A23,23,0,0,0,119,104.4l.34.5a16.35,16.35,0,0,1-2.17-5.56,37.29,37.29,0,0,1-.84-8.84,49.59,49.59,0,0,1,.82-8.07c.92-4.24.55,0,.87,0,.66-4.2,1.67-6.17,3.15-9.78a3.5,3.5,0,0,0,.27-.45c.18-.29.42-.7.7-1.2s.7-1.06,1.1-1.7.9-1.26,1.48-1.86a18.18,18.18,0,0,1,3.73-3.3c.63-.48,1.35-.79,2-1.17s1.24-.62,1.83-.79c0,0,.35-.19,1.27-.57a19.83,19.83,0,0,1,5.08-1.09c1.76-.13,1.74-.35,1.7-.6l.07.48a4.65,4.65,0,0,1,1.57-.22,9.62,9.62,0,0,1,1.85.08l.93.11c.3,0,.58.12.85.16.54.1,1,.16,1.41.21l-.07.52A9.49,9.49,0,0,1,151,62.61a28.33,28.33,0,0,1,3.45,2.4l-.35.46a11.82,11.82,0,0,1,1.32,1.37c.31.45.48.77.37.87l-.42.41c.17.3.4.68.66,1s.55.77.8,1.14c.51.72.83,1.42.58,1.57l.52-.33a27.72,27.72,0,0,1,2.65,8.15,38.69,38.69,0,0,1,.46,7.84c-.12,1.72-.3,3.48-.59,5.26a50,50,0,0,1-1.07,5.34c-.19.85-.53,1.86-.79,2.82s-.6,1.93-.91,2.9-.68,2-1,2.93-.78,2-1.18,3c-1.67,4-3.76,8.15-6.17,12.66s-5,9.36-7.44,14.59c-1.14,2.29-1.6,5,.06,2.92-.54,1.17-1.09,2.33-1.59,3.57s-1,2.42-1.45,3.71a17,17,0,0,0-.79,2.66,6.6,6.6,0,0,0-.06,1.41,7,7,0,0,1-.05,1.39c-.06.63-.32,1.49-.58,2.88a61.07,61.07,0,0,0-.79,16.57,75.55,75.55,0,0,0,3,15.47,88.66,88.66,0,0,0,5.64,14,109.16,109.16,0,0,0,7.42,12.65,125.37,125.37,0,0,0,18.74,21.61,111.68,111.68,0,0,0,11,8.89c1.94,1.35,3.91,2.64,6,3.8a40.46,40.46,0,0,0,6.34,3,49.63,49.63,0,0,1-11.22-6.28c-3.34-2.39-6.52-5-10.07-8.1.09-.08.26-.23-1.45-1.84a134.85,134.85,0,0,1-14.22-16.16c-4.08-5.48-7.09-10.73-8.36-14.12-.43-1.13-.82-2.26-1.38-4-.28-.87-.63-1.86-1.09-3s-1-2.62-1.61-4.32c.88,2.26,1.79,4.5,2.82,6.67l.7-.29A85.17,85.17,0,0,1,144,185.3a62,62,0,0,1-1.59-15.77h.91c0-1.61.12-3.24.23-4.86.35-.58.59-.66.76-.35a2.4,2.4,0,0,1,.18.74c.06.34.12.77.16,1.27.15,2,.18,5.17.64,8.82A79.67,79.67,0,0,0,151,196.73l.95-.36c-.52-1.43-1.06-2.86-1.55-4.31l.5-.16a106,106,0,0,0,7.79,17.66,135.68,135.68,0,0,0,10.5,16.26c-1.4-1.81-4-5.56-5.23-7.48.17-.11.29-.19-.89-2.12a144.5,144.5,0,0,0,8.4,12.15,128.29,128.29,0,0,0,9.67,11.18c.81.81.86.75.17-.15L177,234.07a154.59,154.59,0,0,1-10.62-14.65l.3-.21a124.24,124.24,0,0,0,9.09,12.93c.75.84.1-.09-.49-1.07s-1.19-1.94-.47-1.08c1.33,1.83,2.72,3.61,4.21,5.31a143.52,143.52,0,0,1-12.73-18.52c-1-2-1.86-4.1-1.52-4.31-5.43-9.66-7.76-18.31-7.88-24.76a7.8,7.8,0,0,0-.12-1.16c-.06-.49-.13-1.09-.23-1.76s-.25-1.41-.36-2.2-.22-1.64-.34-2.52A59.45,59.45,0,0,1,155.44,169.78Z" style="fill:#C53F3F"></path><path d="M100.07,134.55l5.11.91c-3.69-.85-7.21-1.61-10.57-2.47s-6.5-1.85-9.52-3l-2.21-.92a23.56,23.56,0,0,1-2.17-1c-.7-.35-1.42-.66-2.12-1l-2-1.15a17.85,17.85,0,0,1-2-1.21l-2-1.25-1.89-1.4-1-.69c-.15-.11-.33-.23-.46-.34l-.38-.32A27.68,27.68,0,0,1,63.63,115a27.7,27.7,0,0,1-4.71-14.44,27.06,27.06,0,0,1,.71-7.26,30.47,30.47,0,0,1,2-4.08,28.68,28.68,0,0,1,3.15-5.86,23.4,23.4,0,0,1,2.24-2.7A26.87,26.87,0,0,1,70,78.13a23.37,23.37,0,0,1,7.23-3.51,27.23,27.23,0,0,1,4.21-.78,31.69,31.69,0,0,1,4.36-.06,50.76,50.76,0,0,1,7.69,1c1,.22,1.8.45,2.35.63s.85.27.85.27c1.52.64,3,1.44,1.82.37a33.2,33.2,0,0,0-6-3.48c-2.19-1-4.08-1.66-4-2a10.65,10.65,0,0,1,3.12,1c.11-.22,1.44-.1,2.87.41a13.15,13.15,0,0,1,3.62,1.89,19.38,19.38,0,0,1,5,4.78,13.57,13.57,0,0,1,2,3.82,11,11,0,0,1,.39,1.59l.1,1c.09,1.3.09,1.3,0,.46-.05-.42,0-1-.11-1.85a14.18,14.18,0,0,0-.58-2.77c-1.15-4.18-4.85-9.29-7.72-11.86s.32-.51.49-.73c-1.49-1.26-2.63-2.24-3.85-3.13a22.42,22.42,0,0,0-4.3-2.65,2.05,2.05,0,0,0-.47-.28c-.31-.17-.76-.4-1.33-.68s-1.26-.56-2-.88-1.67-.63-2.62-.89a33.75,33.75,0,0,0-6.22-1.25,30.86,30.86,0,0,0-3.12-.17A24.38,24.38,0,0,0,71,58.5l-.45.06c-.31,0-.79.11-1.47.24s-1.58.26-2.7.54a38.47,38.47,0,0,0-4.08,1.13c-2.11.76-2,1-1.89,1.2l-.22-.43c-.92.66-2.44,1.29-4,2.13l-1.14.6-1,.65a10.6,10.6,0,0,0-1.69,1.23l-.34-.4c-.84.8-1.73,1.54-2.57,2.35s-1.7,1.59-2.52,2.43S45.37,72,44.6,72.83a24.23,24.23,0,0,0-2,2.87l-.51-.29c-1.31,2-2.35,4-2.63,3.92L39,79.09a19.07,19.07,0,0,0-1.88,4c-.53,1.39-.88,2.51-1.17,2.43l.59.16A55.7,55.7,0,0,0,34,108.8a44.08,44.08,0,0,0,3.85,14.56A46.07,46.07,0,0,0,47.3,136.9a48.24,48.24,0,0,0,6.49,5.46l3.15,2,1.59,1c.54.31,1.1.6,1.65.89L63.5,148c1.14.52,2.29,1,3.42,1.47.57.24,1.14.49,1.71.71l1.73.6c1.16.38,2.3.8,3.44,1.12,2,.62,4.22.58,2.44-.64,2,.64,4,1.08,6,1.54a5.39,5.39,0,0,0,3.06.09,6.5,6.5,0,0,1,3,0c7.76.74,15.09.56,21.21,1l1.15.08,1.08.11c.72.08,1.46.14,2.09.27l1,.17c.16,0,.36,0,.48.07l.37.09.75.15.75.26c.53.13,1,.44,1.57.63s1.06.54,1.58.91a16.14,16.14,0,0,1,1.6,1.13c.54.38,1,.86,1.59,1.33a43.13,43.13,0,0,1,6,6.85,89.18,89.18,0,0,1,5.29,8.34,179.1,179.1,0,0,1,9.11,18.81c-2.8-6.58-4.71-11.41-7.94-17.44.12,0,.33-.12-.44-1.63a71.43,71.43,0,0,0-8-12.59,51.26,51.26,0,0,0-4-4.34c-.61-.56-1.16-1.11-1.67-1.53s-.93-.85-1.29-1.21-1-.93-1.73-1.57a9,9,0,0,0-1.5-.88c-.31-.13-.65-.27-1-.41l-1.51-.37c.7.18,1.54.3,2.09.51l.93.29.91.38.35-.66c-2.3-1.22-5.85-2-9.5-2.6s-7.56-1-11.06-1.51l.12-.9c-1.18-.14-2.34-.24-3.52-.41-1.61-1.31,2.43-1.2,7.86-.87,2.71.19,5.79.45,8.66.91.72.09,1.41.25,2.1.38s1.37.25,2,.43l1.83.47L119,148l.4-.93c-.54-.21-1.07-.43-1.62-.63l-1.67-.48.14-.51a21,21,0,0,1,7,3.17,28.92,28.92,0,0,1,5.42,4.92,40.79,40.79,0,0,1,4.25,5.92,63.78,63.78,0,0,1,3.49,6.75c-.7-1.61-2.28-4.73-3.18-6.24.16-.1.32-.19-.58-1.71,3.76,6,6.74,14.32,8.63,21,.26.83.34.81.22-.06a47.67,47.67,0,0,0-1.08-5.18,73.48,73.48,0,0,0-5.06-13.27l.32-.18a90.67,90.67,0,0,1,4.48,11.67c.62,1.67-.64-3.55,0-1.89l1.47,5.14a79.91,79.91,0,0,0-2.47-8.59,88.23,88.23,0,0,0-3.48-8.43c-.68-1.73-1.48-3.47-1.16-3.71a49.45,49.45,0,0,0-4.06-5.64c-.69-.88-1.48-1.68-2.22-2.49s-1.56-1.55-2.39-2.24a27.6,27.6,0,0,0-2.51-2c-.43-.3-.84-.62-1.28-.89l-1.32-.8c-.92-.57-1.62-.92-2.39-1.36s-1.48-.86-2.15-1.21a14.84,14.84,0,0,0-2.65-1c-1.21-.33-2.78-.74-4.34-1C106,135.49,102.56,135,100.07,134.55Z" style="fill:#fff;opacity:0.3"></path><path d="M155.44,169.78l-.12,2.89c0,1,.05,2,.07,2.94a46.7,46.7,0,0,1,1.42-12.12c.25-1,.58-1.89.85-2.83s.71-1.81,1-2.72c.76-1.85,1.73-3.82,2.73-5.72,4-7.67,9.92-15.59,15.07-25.12a93.87,93.87,0,0,0,6.63-15.26,81.71,81.71,0,0,0,2.22-8.2A65.91,65.91,0,0,0,186.59,95a66.68,66.68,0,0,0-.9-17.22A57.48,57.48,0,0,0,180,61.21c-.34-.67-.74-1.53-1.24-2.45s-1.06-1.93-1.72-2.9a38.15,38.15,0,0,0-3.85-5.07,37,37,0,0,0-18.09-10.08,39.27,39.27,0,0,0-10.59-.81,43,43,0,0,0-9.89,1.79,40.76,40.76,0,0,0-9.39,4.15,33.4,33.4,0,0,0-7.87,6.74,31.74,31.74,0,0,0-5.12,8.25,36.64,36.64,0,0,0-2.39,8.36,36.27,36.27,0,0,0,.46,13c.31,1.55.65,2.75.88,3.58l.38,1.26c.65,2.38,1.51,4.63,1.13,2.3a49,49,0,0,1-.82-10.1c.08-3.62.81-6.64,1.08-6.56a4.69,4.69,0,0,1-.13,1.52c-.08.91-.26,2.1-.31,3.3.12,0,.25.48.36,1.2s.25,1.68.38,2.71c.24,2.06.57,4.35.65,5.49a79.18,79.18,0,0,0,1.78,9,44.6,44.6,0,0,0,1.76,5.34A23,23,0,0,0,119,104.4l.34.5a16.35,16.35,0,0,1-2.17-5.56,37.29,37.29,0,0,1-.84-8.84,49.59,49.59,0,0,1,.82-8.07c.92-4.24.55,0,.87,0,.66-4.2,1.67-6.17,3.15-9.78a3.5,3.5,0,0,0,.27-.45c.18-.29.42-.7.7-1.2s.7-1.06,1.1-1.7.9-1.26,1.48-1.86a18.18,18.18,0,0,1,3.73-3.3c.63-.48,1.35-.79,2-1.17s1.24-.62,1.83-.79c0,0,.35-.19,1.27-.57a19.83,19.83,0,0,1,5.08-1.09c1.76-.13,1.74-.35,1.7-.6l.07.48a4.65,4.65,0,0,1,1.57-.22,9.62,9.62,0,0,1,1.85.08l.93.11c.3,0,.58.12.85.16.54.1,1,.16,1.41.21l-.07.52A9.49,9.49,0,0,1,151,62.61a28.33,28.33,0,0,1,3.45,2.4l-.35.46a11.82,11.82,0,0,1,1.32,1.37c.31.45.48.77.37.87l-.42.41c.17.3.4.68.66,1s.55.77.8,1.14c.51.72.83,1.42.58,1.57l.52-.33a27.72,27.72,0,0,1,2.65,8.15,38.69,38.69,0,0,1,.46,7.84c-.12,1.72-.3,3.48-.59,5.26a50,50,0,0,1-1.07,5.34c-.19.85-.53,1.86-.79,2.82s-.6,1.93-.91,2.9-.68,2-1,2.93-.78,2-1.18,3c-1.67,4-3.76,8.15-6.17,12.66s-5,9.36-7.44,14.59c-1.14,2.29-1.6,5,.06,2.92-.54,1.17-1.09,2.33-1.59,3.57s-1,2.42-1.45,3.71a17,17,0,0,0-.79,2.66,6.6,6.6,0,0,0-.06,1.41,7,7,0,0,1-.05,1.39c-.06.63-.32,1.49-.58,2.88a61.07,61.07,0,0,0-.79,16.57,75.55,75.55,0,0,0,3,15.47,88.66,88.66,0,0,0,5.64,14,109.16,109.16,0,0,0,7.42,12.65,125.37,125.37,0,0,0,18.74,21.61,111.68,111.68,0,0,0,11,8.89c1.94,1.35,3.91,2.64,6,3.8a40.46,40.46,0,0,0,6.34,3,49.63,49.63,0,0,1-11.22-6.28c-3.34-2.39-6.52-5-10.07-8.1.09-.08.26-.23-1.45-1.84a134.85,134.85,0,0,1-14.22-16.16c-4.08-5.48-7.09-10.73-8.36-14.12-.43-1.13-.82-2.26-1.38-4-.28-.87-.63-1.86-1.09-3s-1-2.62-1.61-4.32c.88,2.26,1.79,4.5,2.82,6.67l.7-.29A85.17,85.17,0,0,1,144,185.3a62,62,0,0,1-1.59-15.77h.91c0-1.61.12-3.24.23-4.86.35-.58.59-.66.76-.35a2.4,2.4,0,0,1,.18.74c.06.34.12.77.16,1.27.15,2,.18,5.17.64,8.82A79.67,79.67,0,0,0,151,196.73l.95-.36c-.52-1.43-1.06-2.86-1.55-4.31l.5-.16a106,106,0,0,0,7.79,17.66,135.68,135.68,0,0,0,10.5,16.26c-1.4-1.81-4-5.56-5.23-7.48.17-.11.29-.19-.89-2.12a144.5,144.5,0,0,0,8.4,12.15,128.29,128.29,0,0,0,9.67,11.18c.81.81.86.75.17-.15L177,234.07a154.59,154.59,0,0,1-10.62-14.65l.3-.21a124.24,124.24,0,0,0,9.09,12.93c.75.84.1-.09-.49-1.07s-1.19-1.94-.47-1.08c1.33,1.83,2.72,3.61,4.21,5.31a143.52,143.52,0,0,1-12.73-18.52c-1-2-1.86-4.1-1.52-4.31-5.43-9.66-7.76-18.31-7.88-24.76a7.8,7.8,0,0,0-.12-1.16c-.06-.49-.13-1.09-.23-1.76s-.25-1.41-.36-2.2-.22-1.64-.34-2.52A59.45,59.45,0,0,1,155.44,169.78Z" style="fill:#fff;opacity:0.3"></path></g><g id="freepik--love-potion--inject-80"><polygon points="297.55 206.65 202.45 206.65 205.65 158.57 294.35 158.57 297.55 206.65" style="fill:#C53F3F"></polygon><polygon points="297.55 206.65 202.45 206.65 205.65 158.57 294.35 158.57 297.55 206.65" style="fill:#fff;opacity:0.5"></polygon><rect x="199.2" y="139.84" width="101.59" height="18.73" style="fill:#C53F3F"></rect><path d="M408.49,269.41C401,315,365.84,372,291.17,412.93H209.89C135.23,372,99,315,91.51,269.41c-6.2-37.51,9.54-96.18,60-108.29,59.92-14.39,74.9,36.8,98.49,36.8s38.58-51.19,98.5-36.8C399,173.23,414.69,231.9,408.49,269.41Z" style="fill:#C53F3F"></path><path d="M408.49,269.41C401,315,365.84,372,291.17,412.93H209.89C135.23,372,99,315,91.51,269.41c-6.2-37.51,9.54-96.18,60-108.29,59.92-14.39,74.9,36.8,98.49,36.8s38.58-51.19,98.5-36.8C399,173.23,414.69,231.9,408.49,269.41Z" style="fill:#fff;opacity:0.6000000000000001"></path><path d="M395.63,270.59a148.93,148.93,0,0,1-14.11,41.78A188.7,188.7,0,0,1,356.76,349a221.49,221.49,0,0,1-32,30.51,292.52,292.52,0,0,1-36.86,24.45l0,0h0l-74.69.06h-.06l0,0-8.53-5c-1.42-.83-2.85-1.64-4.26-2.5l-4.13-2.7-4.14-2.7c-1.37-.92-2.79-1.75-4.1-2.75l-8-5.8a255.79,255.79,0,0,1-29.59-26.13,207.09,207.09,0,0,1-24.37-31.06,162.4,162.4,0,0,1-17.09-35.56l-.8-2.34c-.28-.78-.45-1.59-.68-2.38l-1.3-4.77c-.48-1.58-.74-3.22-1.08-4.83l-1-4.86a97.43,97.43,0,0,1-1.06-19.75,108.87,108.87,0,0,1,8.71-38.41,85.05,85.05,0,0,1,9.85-17.14,69.32,69.32,0,0,1,13.86-14.09c1.28-1.05,2.7-1.91,4-2.85s2.83-1.71,4.27-2.53a65.22,65.22,0,0,1,9.06-4l2.34-.82,2.39-.66c.8-.21,1.58-.47,2.39-.63l2.42-.52c.81-.16,1.61-.35,2.43-.5l2.44-.38c.82-.11,1.63-.26,2.45-.35l2.47-.23A61.49,61.49,0,0,1,191.76,169a59.82,59.82,0,0,1,18.17,7.67,113.19,113.19,0,0,1,15.58,12.16c2.45,2.19,4.87,4.42,7.36,6.56a53.32,53.32,0,0,0,7.91,5.82,16.62,16.62,0,0,0,18.48,0,53.4,53.4,0,0,0,7.92-5.82c2.49-2.13,4.92-4.36,7.38-6.55a113.44,113.44,0,0,1,15.58-12.11,67.58,67.58,0,0,1,8.77-4.57,56.33,56.33,0,0,1,9.4-3A60.94,60.94,0,0,1,328,167.91l2.46.23c.82.09,1.63.24,2.44.36l2.45.38c.81.15,1.61.34,2.41.5l2.42.52c.8.18,1.59.43,2.39.64l2.37.67,2.34.82a66,66,0,0,1,31.08,23.45c7.86,10.6,13,23.06,15.82,35.88a111,111,0,0,1,2.57,19.55A98.17,98.17,0,0,1,395.63,270.59Zm0,0a97.45,97.45,0,0,0,1-19.68,111.07,111.07,0,0,0-2.59-19.54c-2.89-12.81-8-25.24-15.87-35.81a65.89,65.89,0,0,0-31-23.34l-2.33-.81-2.37-.67c-.79-.21-1.58-.46-2.38-.63l-2.41-.51c-.81-.17-1.61-.35-2.41-.5l-2.44-.38c-.81-.12-1.62-.26-2.44-.36l-2.45-.22a61,61,0,0,0-19.57,1.27,55.82,55.82,0,0,0-9.35,3.05A65.72,65.72,0,0,0,290.3,177a113.26,113.26,0,0,0-15.52,12.1c-2.45,2.2-4.87,4.43-7.37,6.57a53.74,53.74,0,0,1-8,5.87,17,17,0,0,1-18.87,0,54,54,0,0,1-8-5.85c-2.5-2.14-4.93-4.37-7.38-6.56a113,113,0,0,0-15.53-12.08,59.56,59.56,0,0,0-18-7.58,60.52,60.52,0,0,0-19.54-1.24l-2.44.23c-.82.09-1.62.24-2.44.35l-2.43.38c-.8.15-1.6.34-2.4.5l-2.41.52c-.8.17-1.58.42-2.37.63l-2.37.67-2.32.81a65.22,65.22,0,0,0-9,4c-1.42.82-2.85,1.62-4.22,2.51s-2.75,1.79-4,2.83a68.91,68.91,0,0,0-13.72,14,84.44,84.44,0,0,0-9.74,17c-10.3,24.12-11.69,52.07-2.78,76.86a160.82,160.82,0,0,0,17,35.44,206.34,206.34,0,0,0,24.24,31,255.87,255.87,0,0,0,29.49,26.13l8,5.8c1.3,1,2.73,1.83,4.09,2.76l4.12,2.7,4.13,2.69c1.4.87,2.83,1.68,4.25,2.51l8.5,5-.1,0,74.69.06-.07,0a294.23,294.23,0,0,0,36.87-24.37,221.53,221.53,0,0,0,32-30.43,188.94,188.94,0,0,0,24.82-36.51A148.87,148.87,0,0,0,395.63,270.59Z" style="fill:#C53F3F;opacity:0.5"></path><path d="M205,167.72a28.82,28.82,0,0,1,6,3.3c1.9,1.3,3.72,2.71,5.5,4.16,3.53,2.94,6.94,6,10.4,9a93.35,93.35,0,0,0,10.82,8.21c3.78,2.36,7.95,4.28,12.29,4.48a11.53,11.53,0,0,0,3.16-.21,17.58,17.58,0,0,0,3.09-1,34.64,34.64,0,0,0,5.84-3.2,120.48,120.48,0,0,0,10.76-8.34c3.49-3,6.94-6,10.53-8.84,1.8-1.42,3.64-2.81,5.54-4.11a39.19,39.19,0,0,1,5.95-3.45A67.92,67.92,0,0,0,284.1,176c-3.41,3-6.72,6.2-10.13,9.26A105.64,105.64,0,0,1,263.24,194a34.74,34.74,0,0,1-6.15,3.43,19,19,0,0,1-3.44,1.12,13.67,13.67,0,0,1-3.66.27c-4.88-.28-9.31-2.39-13.2-4.89A84.2,84.2,0,0,1,226,185.32c-3.4-3.09-6.65-6.31-10-9.4S209.14,169.79,205,167.72Z" style="fill:#C53F3F"></path><path d="M395.57,270.64c-7,42.19-38.4,94.94-107.48,132.78H212.9c-69.09-37.84-101.5-90.59-108.47-132.78a104.51,104.51,0,0,1,6.95-56.45c33.5-8,99.67-8,118.93-3.76,35.15,7.79,88.7-1.89,117-.94,27.86.92,42.64,9,43.1,9.25h0A105.13,105.13,0,0,1,395.57,270.64Z" style="fill:#C53F3F;opacity:0.6000000000000001"></path><path d="M390.44,218.75c-35,10-74.86,1.08-96.92,2.41s-68.88,12.39-111.35,7.49-70.79-14.46-70.79-14.46c33.5-8,72.12-10.44,91.81-9.42,24.68,1.27,51.3,6.46,68.92,6.74,29.83.47,57.41-2.62,75.22-2,27.86.92,42.64,9,43.1,9.25Z" style="fill:#C53F3F"></path><path d="M129.8,309.35a1.21,1.21,0,1,1-1.21-1.2A1.21,1.21,0,0,1,129.8,309.35Z" style="fill:#C53F3F"></path><path d="M328,233.11a1.21,1.21,0,1,1-1.21-1.21A1.21,1.21,0,0,1,328,233.11Z" style="fill:#C53F3F"></path><path d="M116.14,261.86a1.21,1.21,0,1,1-1.21-1.21A1.21,1.21,0,0,1,116.14,261.86Z" style="fill:#C53F3F"></path><circle cx="380.12" cy="270.83" r="1.21" style="fill:#C53F3F"></circle><path d="M314.77,375.55a1.21,1.21,0,1,1-1.21-1.21A1.21,1.21,0,0,1,314.77,375.55Z" style="fill:#C53F3F"></path><path d="M144.22,316.7a2.83,2.83,0,1,1-2.83-2.83A2.83,2.83,0,0,1,144.22,316.7Z" style="fill:#C53F3F"></path><path d="M349.92,240.63a2.83,2.83,0,1,1-2.83-2.83A2.83,2.83,0,0,1,349.92,240.63Z" style="fill:#C53F3F"></path><path d="M302.53,379.59a2.84,2.84,0,1,1-2.83-2.83A2.83,2.83,0,0,1,302.53,379.59Z" style="fill:#C53F3F"></path><circle cx="163.65" cy="354.93" r="2.01" style="fill:#C53F3F"></circle><path d="M389.44,277.32a2,2,0,1,1-2-2A2,2,0,0,1,389.44,277.32Z" style="fill:#C53F3F"></path><circle cx="349.92" cy="324.02" r="2.01" style="fill:#C53F3F"></circle><circle cx="296.86" cy="389.63" r="2.01" style="fill:#C53F3F"></circle><circle cx="165.66" cy="237.8" r="2.01" style="fill:#C53F3F"></circle><polygon points="299.69 445.88 201.38 445.88 209.93 412.93 291.14 412.93 299.69 445.88" style="fill:#C53F3F"></polygon><polygon points="299.69 445.88 201.38 445.88 208.56 418.21 292.09 416.57 299.69 445.88" style="fill:#fff;opacity:0.5"></polygon><polygon points="207.06 139.84 194.85 81.67 247.59 78.32 302.79 81.85 293.94 139.84 207.06 139.84" style="fill:#C53F3F"></polygon><polygon points="302.8 81.85 293.94 139.84 207.06 139.84 194.85 81.67 231.12 88.84 233.37 99.89 233.37 89.29 244.05 91.39 246.97 110.51 246.97 91.66 270.28 87.56 271.65 102.28 273.41 87.01 279.52 85.94 279.08 96.35 282.14 85.48 302.8 81.85" style="opacity:0.2"></polygon><path d="M209.42,112a1.21,1.21,0,1,1-1.21-1.21A1.21,1.21,0,0,1,209.42,112Z" style="fill:#C53F3F"></path><path d="M283.83,127.85a1.21,1.21,0,1,1-1.21-1.2A1.21,1.21,0,0,1,283.83,127.85Z" style="fill:#C53F3F"></path><path d="M213.11,127.85a2.83,2.83,0,1,1-2.83-2.83A2.84,2.84,0,0,1,213.11,127.85Z" style="fill:#C53F3F"></path><circle cx="216.44" cy="133.65" r="2.01" style="fill:#C53F3F"></circle><circle cx="295.53" cy="93.17" r="2.01" style="fill:#C53F3F"></circle><path d="M343.66,295c-7.32,41.47-43.05,71-93.66,96.62C199.39,366,163.67,336.49,156.34,295s24.47-67.86,51.71-62.41c28.66,5.73,41.95,35.73,41.95,35.73s13.29-30,41.95-35.73C319.19,227.16,351,253.55,343.66,295Z" style="fill:#263238"></path><path d="M250,385.1l-.22-.11c-25.42-12.67-44.54-25.33-58.44-38.69-15.87-15.25-25.17-31.51-28.44-49.71-3.31-18.49,1.34-35.53,12.76-46.75,9.17-9,21.69-13,33.48-10.69,23.87,4.71,38.18,31.73,40.86,37.21,2.68-5.48,17-32.5,40.86-37.21,11.8-2.32,24.31,1.68,33.48,10.69,11.42,11.22,16.07,28.26,12.76,46.75-3.26,18.2-12.56,34.46-28.44,49.71-13.9,13.36-33,26-58.44,38.69ZM202.46,239.51a37.45,37.45,0,0,0-26.1,11c-11.18,11-15.73,27.71-12.47,45.87,3.22,18,12.43,34.06,28.14,49.16,13.79,13.25,32.75,25.81,58,38.4,25.22-12.59,44.18-25.15,58-38.4,15.72-15.1,24.92-31.18,28.14-49.16h0c3.26-18.16-1.29-34.88-12.47-45.87-8.94-8.78-21.13-12.68-32.59-10.41-25.94,5.11-40.45,37.26-40.59,37.59l-.46,1-.46-1c-.14-.33-14.65-32.48-40.59-37.59A33,33,0,0,0,202.46,239.51Z" style="fill:#fff"></path><path d="M241.13,280.9a8.86,8.86,0,0,1-4.56,8.06q-4.9,3-14.64,2.77-3.19,7.92-8.67,10.29a10.61,10.61,0,0,1,5.17,2.15c1.78,1.26,3.58,2.51,5.39,3.77a11.64,11.64,0,0,0,5.91,2,5.37,5.37,0,0,0,4.32-1.93,7.53,7.53,0,0,0,1.64-5.08,3,3,0,0,0-1.11-2.32,3.64,3.64,0,0,0-2.48-1,2.74,2.74,0,0,0-2.1.88,2.09,2.09,0,0,0-.66,1.44c0,.32.1.48.31.48a1.86,1.86,0,0,0,.59-.13,2.2,2.2,0,0,1,.63-.13c.68,0,1,.51,1,1.53a1.67,1.67,0,0,1-1.88,1.89,2.84,2.84,0,0,1-2.26-1.07,3.82,3.82,0,0,1-.9-2.52,5.05,5.05,0,0,1,5-5,6,6,0,0,1,4.53,1.95,6.44,6.44,0,0,1,1.87,4.62,9.14,9.14,0,0,1-3.2,7.19,11.29,11.29,0,0,1-14.38.09q-2.44-2.32-4.95-4.65a8.37,8.37,0,0,0-5.52-2.54,1.68,1.68,0,0,0-.74.22,1.75,1.75,0,0,1-.75.22,1.43,1.43,0,0,1-1-.37.9.9,0,0,1-.32-.86c.08-.44.93-1,2.54-1.62a9.93,9.93,0,0,0,4.29-3,22.45,22.45,0,0,0,2.94-6.51c-3.24.18-4.87,1.05-4.87,2.63a1.07,1.07,0,0,0,.57.83,1.46,1.46,0,0,1,.07,2.26,1.76,1.76,0,0,1-1.16.42,2.12,2.12,0,0,1-1.69-.81,2.78,2.78,0,0,1-.68-1.82,5,5,0,0,1,2.54-4.25,15.23,15.23,0,0,1,6.09-2.11q2.33-7.14,5.74-10.82a13.61,13.61,0,0,1,10.35-4.65,6.58,6.58,0,0,1,5.17,2.24A7.9,7.9,0,0,1,241.13,280.9Zm-2.94-1a4.34,4.34,0,0,0-1.07-2.91,3.51,3.51,0,0,0-2.78-1.25,8.56,8.56,0,0,0-7.5,3.94q-1.49,2.16-3.77,8.86a23.81,23.81,0,0,0,10.08-2.59Q238.19,283.36,238.19,279.89Z" style="fill:#fff"></path><path d="M256.55,290.1a15.57,15.57,0,0,1-3.66,10.1q-3.66,4.5-8.39,4.5-5.61,0-5.61-6a15,15,0,0,1,4.12-9.9q4-4.6,8.15-4.6a5,5,0,0,1,4.08,1.75A6.32,6.32,0,0,1,256.55,290.1Zm-4-2.05q0-1.71-1.14-1.71c-1.71,0-3.62,1.67-5.71,5s-3.15,6.4-3.15,9.16c0,1.35.57,2,1.71,2,2.24,0,4.21-1.6,5.93-4.79A20.73,20.73,0,0,0,252.57,288.05Z" style="fill:#fff"></path><path d="M276.27,288.69a17.1,17.1,0,0,1-1.71,6.65,20.46,20.46,0,0,1-4.6,6.91c-2.13,2.07-4.37,3-6.7,2.8a4.91,4.91,0,0,1-3.27-1.73,5.13,5.13,0,0,1-1.38-3.49q0-2.54,2.5-6.48t2.5-6.58c0-.41-.16-.58-.48-.52a2.67,2.67,0,0,0-1.82,1.51c-.51.89-.89,1.34-1.12,1.34a.75.75,0,0,1-.61-.38,1.26,1.26,0,0,1-.27-.76,4.11,4.11,0,0,1,1.61-2.7,4.83,4.83,0,0,1,3.28-1.42,2.82,2.82,0,0,1,2.19,1,3.37,3.37,0,0,1,.9,2.32,13.15,13.15,0,0,1-1.43,5.43c-.2.47-1.08,2.12-2.62,4.95a9.43,9.43,0,0,0-1.43,3.73,1.86,1.86,0,0,0,.42,1.16,1.29,1.29,0,0,0,1.08.55c1.9,0,3.78-1.07,5.63-3.19a24.84,24.84,0,0,0,3.82-6.3,13.87,13.87,0,0,0,1.41-4.55,2.44,2.44,0,0,0-.22-1.05,2.82,2.82,0,0,1-1.82-.41,1.59,1.59,0,0,1-.77-1.38,2.33,2.33,0,0,1,.75-1.73,1.85,1.85,0,0,1,1.71-.54Q276.27,284.32,276.27,288.69Z" style="fill:#fff"></path><path d="M292.49,287.39a5.86,5.86,0,0,1-2.94,5.26L284.07,295c-2,.88-2.93,2.08-2.93,3.6,0,2.54.81,3.81,2.45,3.81a5.49,5.49,0,0,0,3.68-1.62c1.2-1.08,1.93-1.63,2.19-1.63q.75,0,.75.66,0,1.28-2.19,2.94a7.38,7.38,0,0,1-4.47,1.79,6,6,0,0,1-4.71-2.12,7.46,7.46,0,0,1-1.87-5.11q0-4.95,4.21-9.11,4-3.95,8.37-3.94a2.65,2.65,0,0,1,2.17.92A3.31,3.31,0,0,1,292.49,287.39Zm-3.2-.31c0-.5-.15-.74-.44-.74-1.83,0-3.47.94-4.94,2.84a10.13,10.13,0,0,0-2.16,4.78,15.61,15.61,0,0,1,3.24-2.15,17.34,17.34,0,0,0,3-1.84A3.71,3.71,0,0,0,289.29,287.08Z" style="fill:#fff"></path><path d="M229.41,320.18a2.33,2.33,0,0,1-.46,1.41,1.4,1.4,0,0,1-1.16.61c-.85,0-1.28-.34-1.28-1v-.57a.53.53,0,0,0,0-.39c-.05-.09-.21-.13-.46-.13a2.21,2.21,0,0,0-1.47.65,15.87,15.87,0,0,1,4.6,11.4,8.24,8.24,0,0,1-3.2,6.88A7.82,7.82,0,0,1,221,341a10.54,10.54,0,0,1-3.95-.62,34.36,34.36,0,0,1-3.68,8.37c-.23.38-.48.54-.74.48s-.46-.32-.4-.7a1.34,1.34,0,0,0,0-.35,1,1,0,0,0-1.1-1.14,8,8,0,0,0-1.49.09,10.46,10.46,0,0,0-3.29,1.93c-.43.35-.74.31-.92-.13s-.14-.57.18-.84q3.15-3.45,7.84-13.69t7.37-13.25a11.19,11.19,0,0,0-7.19-2.2A14.94,14.94,0,0,0,203,323.36a14.08,14.08,0,0,0-4.57,10.41,6.48,6.48,0,0,0,1.09,3.72,3.5,3.5,0,0,0,3,1.76,5.55,5.55,0,0,0,4.6-2.76,9.6,9.6,0,0,0,1.75-5.57c0-2.28-.65-3.42-2-3.42a3.38,3.38,0,0,0-2.69,1.19,4.62,4.62,0,0,0-1,3.15c0,.18.31.4.94.66a1.68,1.68,0,0,1,.94,1.75,1.5,1.5,0,0,1-.57,1.16,1.91,1.91,0,0,1-1.31.51,2.15,2.15,0,0,1-1.93-1.36,5.66,5.66,0,0,1-.61-2.72,8,8,0,0,1,2.23-5.61A6.24,6.24,0,0,1,207.5,324c3.12,0,4.69,2.27,4.69,6.8a10.74,10.74,0,0,1-2.85,7.27,9.33,9.33,0,0,1-7.28,3.46,6,6,0,0,1-5-2.5,8.83,8.83,0,0,1-1.84-5.69,15.41,15.41,0,0,1,5.32-11.86,18.42,18.42,0,0,1,12.82-4.84A15.72,15.72,0,0,1,223,319.4a7.34,7.34,0,0,1,4-1.28,2.51,2.51,0,0,1,1.62.62A1.82,1.82,0,0,1,229.41,320.18Zm-4.69,11.44a21.21,21.21,0,0,0-.7-5,14.8,14.8,0,0,0-1.27-3.55,41.49,41.49,0,0,0-2.94,7.67q-1,3.86-2,7.71a6.57,6.57,0,0,0,2.36.3,3.65,3.65,0,0,0,2.63-1.22Q224.72,335.61,224.72,331.62Z" style="fill:#fff"></path><path d="M245.53,333.37a15.61,15.61,0,0,1-3.66,10.11q-3.66,4.49-8.39,4.49-5.61,0-5.61-6a15,15,0,0,1,4.12-9.9q4-4.6,8.15-4.6a5,5,0,0,1,4.08,1.75A6.32,6.32,0,0,1,245.53,333.37Zm-4-2.05c0-1.14-.37-1.71-1.13-1.71-1.72,0-3.62,1.67-5.71,5s-3.15,6.41-3.15,9.16c0,1.35.57,2,1.71,2q3.35,0,5.93-4.79A20.72,20.72,0,0,0,241.54,331.32Z" style="fill:#fff"></path><path d="M261.92,327.72l-.88,2.15h-4.16q-1.4,3-5.21,11.2a8.12,8.12,0,0,0-.92,3.3c0,.85.26,1.28.79,1.28s1.16-.43,1.73-1.28,1.11-1.27,1.64-1.27.74.35.74,1.06A3.65,3.65,0,0,1,254,347a6,6,0,0,1-3.77,1.31A2.91,2.91,0,0,1,247.7,347a5,5,0,0,1-.9-3,10,10,0,0,1,1-4.13l4.56-10h-3.6l.88-2.15h3.73l1.53-3.37a8.37,8.37,0,0,1,1.14-1.78q.7-.85,1.14-.87a14.46,14.46,0,0,0,1.44-.2,3.19,3.19,0,0,0,.66-.26A1.68,1.68,0,0,1,260,321c.29,0,.46.11.52.35,0-.09,0,.16,0,.74,0,.06-.45,1-1.36,2.94-.41.87-.83,1.77-1.27,2.67Z" style="fill:#fff"></path><path d="M269.2,327.63q0,1.32-3.62,7.91t-3.62,9c0,.85.27,1.27.79,1.27a2.25,2.25,0,0,0,2.11-1.47c.46-1,.92-1.47,1.36-1.47s.74.44.74,1.32a3.52,3.52,0,0,1-1.51,2.91,5.48,5.48,0,0,1-3.44,1.16,2.92,2.92,0,0,1-2.48-1.22,5,5,0,0,1-.9-3q0-2.85,2.33-7.95a35,35,0,0,0,2.32-5.72c0-.23-.29-.4-.88-.5s-.87-.35-.87-.73c0-.87,1-1.31,2.85-1.31a8.57,8.57,0,0,0,3.35-.42c.54-.27.82-.41.85-.41C269,327,269.2,327.2,269.2,327.63Zm1.79-7.18a5.36,5.36,0,0,1-.7,2.8,2.39,2.39,0,0,1-2.15,1.36,1.61,1.61,0,0,1-1.31-.68,2.4,2.4,0,0,1-.53-1.51,4.87,4.87,0,0,1,.88-2.83,2.48,2.48,0,0,1,2-1.25,1.67,1.67,0,0,1,1.27.57A2.19,2.19,0,0,1,271,320.45Z" style="fill:#fff"></path><path d="M284.71,333.37a15.61,15.61,0,0,1-3.66,10.11q-3.66,4.49-8.39,4.49-5.61,0-5.61-6a14.92,14.92,0,0,1,4.12-9.9q4-4.6,8.15-4.6a5,5,0,0,1,4.07,1.75A6.27,6.27,0,0,1,284.71,333.37Zm-4-2.05c0-1.14-.38-1.71-1.13-1.71-1.72,0-3.63,1.67-5.72,5s-3.14,6.41-3.14,9.16c0,1.35.57,2,1.7,2q3.36,0,5.93-4.79A20.61,20.61,0,0,0,280.72,331.32Z" style="fill:#fff"></path><path d="M304.73,331.93q0,1.23-2.8,6.75t-2.8,6.7c0,.53.14.79.43.79.59,0,1.26-.51,2-1.53s1.24-1.54,1.45-1.54c.49,0,.74.31.74.92a4.41,4.41,0,0,1-1.49,2.55,4.49,4.49,0,0,1-3.07,1.66,3.4,3.4,0,0,1-2.45-.7,4.12,4.12,0,0,1-.83-3q0-2.31,2.73-7.76a44.31,44.31,0,0,0,2.74-5.88c0-.49-.2-.74-.61-.74q-3.15,0-9.25,16.13a3.51,3.51,0,0,1-.3.7,1.27,1.27,0,0,1-1,.7l-1.84.09a3,3,0,0,0-1.51.46,2.12,2.12,0,0,1-1.16.41c-.41,0-.61-.21-.61-.65a.64.64,0,0,1,.13-.4,43.22,43.22,0,0,0,3.72-7.93q2.28-6,2.28-9.29c0-.23-.29-.4-.88-.5s-.87-.35-.87-.73c0-.87,1-1.31,2.85-1.31a8.57,8.57,0,0,0,3.35-.42c.54-.27.82-.41.85-.41.41,0,.62.22.62.65a61.4,61.4,0,0,1-2.85,6.71q-3.28,7.1-4.34,10.25c-.06.18,0,.28.09.31a.3.3,0,0,0,.3-.22q4.39-10.56,7-14c1.32-1.78,2.79-2.68,4.43-2.68Q304.73,328,304.73,331.93Z" style="fill:#fff"></path><path d="M137,328.42a77.36,77.36,0,0,1-6.91-9.16c-2.12-3.2-4-6.53-5.84-9.94a121.58,121.58,0,0,1-8.68-21.51,109,109,0,0,1-2.74-11.38,105.67,105.67,0,0,1-1.55-11.66,101.67,101.67,0,0,1,.88-23.63c.34-1.95.65-3.91,1.12-5.84l.66-2.9.82-2.83,1.71-5.64a27.93,27.93,0,0,1,1-2.78l1.09-2.75a97.22,97.22,0,0,1,5-10.71c.41-.89,1-1.7,1.49-2.55l1.55-2.53c.53-.83,1-1.67,1.58-2.49l1.76-2.39A78.86,78.86,0,0,1,146.33,181a69.42,69.42,0,0,1,9.89-6.16c.86-.44,1.72-.87,2.62-1.25s1.74-.82,2.65-1.14a39.7,39.7,0,0,1,5.5-1.7,80.15,80.15,0,0,0-17.41,13.94,92.46,92.46,0,0,0-13.12,17.43l-1.4,2.32c-.44.79-.82,1.61-1.23,2.42-.8,1.62-1.71,3.18-2.43,4.84-1.36,3.36-2.94,6.6-4,10.08l-.89,2.56a25.89,25.89,0,0,0-.84,2.58l-1.4,5.25-.73,2.62-.56,2.63c-.42,1.75-.67,3.53-1,5.3A125.47,125.47,0,0,0,123.16,286a172,172,0,0,0,5.58,21.47A185.25,185.25,0,0,0,137,328.42Z" style="fill:#fff"></path><path d="M137.94,307.46a121.3,121.3,0,0,1-10.27-32.59,105.71,105.71,0,0,1,0-34.37,115.41,115.41,0,0,1,4.26-16.72A104.47,104.47,0,0,1,138.83,208a86.52,86.52,0,0,1,9.65-14.24,82.66,82.66,0,0,1,5.84-6.28,77.84,77.84,0,0,1,6.49-5.57c-2.05,2-4,4-5.89,6.14s-3.65,4.31-5.28,6.62a96.65,96.65,0,0,0-8.73,14.41,114.39,114.39,0,0,0-6.31,15.6,116.66,116.66,0,0,0-4,16.32,100.64,100.64,0,0,0-1.52,16.72,122.83,122.83,0,0,0,.9,16.81A160,160,0,0,0,137.94,307.46Z" style="fill:#fff"></path><path d="M302.28,154.11l-.2,0a1.47,1.47,0,0,1-1.26-1.66c.82-6.09-10.46-13.93-14.88-16.44a1.47,1.47,0,0,1,1.46-2.56c1.8,1,17.58,10.24,16.34,19.4A1.48,1.48,0,0,1,302.28,154.11Z" style="fill:#263238"></path><path d="M404.78,221.23s0,0,0-.08-.06-.24-.1-.36a.14.14,0,0,0,0-.06,1.06,1.06,0,0,0-.09-.25,4,4,0,0,0-.2-.35l-.07-.12-.17-.22-.2-.24-64.25-77.43a3.19,3.19,0,0,0-2.47-1.1l-30,1h-.43l-.78,0h-.35l-11.36.36a3,3,0,0,0-2.89,2.39L288.88,156l-.22,1-6.55,29.74a3,3,0,0,0,.63,2.62L347.2,267a3.06,3.06,0,0,0,4.32.41l52.2-43.36a3.48,3.48,0,0,0,.47-.47l0,0,.17-.26s.05-.09.08-.16a.29.29,0,0,0,.08-.14h0a2.34,2.34,0,0,0,.09-.24.58.58,0,0,0,.05-.14,2.23,2.23,0,0,0,.12-.57,2.81,2.81,0,0,0,0-.58A2.51,2.51,0,0,0,404.78,221.23Zm-99.29-68.6c.13.12.25.25.37.38h0s0,.05.05.08h0a3.82,3.82,0,0,1-.71,5.46,3.84,3.84,0,0,1-5.16-.6l-.2-.29-.22-.31v0a3.78,3.78,0,0,1,.6-4.53,3.86,3.86,0,0,1,2.3-1.12,3.94,3.94,0,0,1,1.52.14,3.28,3.28,0,0,1,.52.2l.25.13.24.14C305.21,152.4,305.34,152.51,305.49,152.63Z" style="fill:#fff"></path><path d="M404.78,221.23s0,0,0-.08-.06-.24-.1-.36a.14.14,0,0,0,0-.06,1.06,1.06,0,0,0-.09-.25,2.42,2.42,0,0,0-.18-.36.48.48,0,0,0-.09-.11c-.25-.36-.55-.7-.82-1l-3.73-4.51-7.47-9-14.91-18.07-29.84-36.14-7.46-9a3.47,3.47,0,0,0-2.7-1.43l-2.94.08-5.86.17-23.41.71-5.87.17-2.92.08-1.47,0-.74,0a3.71,3.71,0,0,0-.8.13,3.49,3.49,0,0,0-2.29,2.21c-.26,1-.43,1.93-.66,2.89L289.13,153,284,175.86l-1.24,5.72-.62,2.86-.32,1.43-.15.71a3.68,3.68,0,0,0-.1.82A3.51,3.51,0,0,0,282,189a3.32,3.32,0,0,0,.46.69l.47.56,1.87,2.25,3.76,4.5,15,18,30,36,7.5,9,5.63,6.74a5.22,5.22,0,0,0,1.08,1.07,3.28,3.28,0,0,0,1.45.51,3.12,3.12,0,0,0,1.51-.21,4,4,0,0,0,1.27-.84l2.24-1.87,4.5-3.76,9-7.5,36-30-36.13,29.85-9,7.46L354,265.14,351.79,267a3.91,3.91,0,0,1-1.18.78,3.1,3.1,0,0,1-1.35.18,2.92,2.92,0,0,1-1.28-.47,4.23,4.23,0,0,1-1-1l-1.86-2.26-3.74-4.51-7.45-9-29.85-36.14-14.92-18.06L285.44,192l-1.86-2.26-.48-.56a4.41,4.41,0,0,1-.35-.53,2.55,2.55,0,0,1-.27-1.21,2.86,2.86,0,0,1,.08-.63l.17-.72.31-1.42.64-2.86,1.27-5.72,5-22.9,1.25-5.72c.21-.93.4-1.95.63-2.82a2.66,2.66,0,0,1,1.76-1.72,2.12,2.12,0,0,1,.62-.1l.72,0,1.47-.05,2.93-.1,5.85-.2,23.42-.82,5.86-.21,2.91-.09a2.9,2.9,0,0,1,2.3,1.22l7.51,9,30,36,15,18,7.5,9,3.76,4.49c.15.19.31.37.47.56s.3.38.44.58a3.87,3.87,0,0,1,.31.65,2.66,2.66,0,0,1,.1.38c0,.11,0,.23,0,.34a3,3,0,0,1-.12,1.15,2.9,2.9,0,0,0,.12-.57,2.81,2.81,0,0,0,0-.58A2.51,2.51,0,0,0,404.78,221.23Zm-.23,1.8c0-.05,0-.1.05-.16a1.15,1.15,0,0,1-.06.17Zm-.36.58h0l.17-.26Z" style="fill:#ebebeb"></path><path d="M304.82,152.16l-.25-.13a2.14,2.14,0,0,1,.22.1h0Z" style="fill:#fff"></path><path d="M305.49,152.62h0c-.15-.12-.28-.23-.43-.33A4.35,4.35,0,0,1,305.49,152.62Z" style="fill:#fff"></path><path d="M305.87,153h0c-.12-.13-.24-.26-.37-.38A4.36,4.36,0,0,1,305.87,153Z" style="fill:#fff"></path><path d="M305.41,158.8a4.08,4.08,0,0,1-5.71-.54l-.05-.07a3.52,3.52,0,0,1-.4-.63,1.75,1.75,0,0,1-.19-.39,4,4,0,0,1,5-5.34,3.94,3.94,0,0,0-1.52-.14,3.86,3.86,0,0,0-2.3,1.12,3.78,3.78,0,0,0-.6,4.53v0l.22.31.2.29a3.84,3.84,0,0,0,5.16.6,3.82,3.82,0,0,0,.71-5.46h0s0-.06-.05-.08,0,.05.07.07h0A4.06,4.06,0,0,1,305.41,158.8Z" style="fill:#fff"></path><path d="M306,153.08h0s0,0-.06-.08-.26-.26-.39-.37a4.35,4.35,0,0,0-.43-.32c.15.1.28.21.43.33s.25.25.37.38h0s0,.05.05.08h0a3.82,3.82,0,0,1-.71,5.46,3.84,3.84,0,0,1-5.16-.6l-.2-.29-.22-.31v0a3.78,3.78,0,0,1,.6-4.53,3.86,3.86,0,0,1,2.3-1.12,3.94,3.94,0,0,1,1.52.14,3.28,3.28,0,0,1,.52.2l.25.13.24.14-.26-.16h0a4.31,4.31,0,0,0-4.8.41,4.26,4.26,0,0,0-1.47,2.37,4.14,4.14,0,0,0,.34,2.88l.23.36.24.38,0,0a4.33,4.33,0,0,0,3,1.58,4.3,4.3,0,0,0,4.59-4.07v-.16A4.35,4.35,0,0,0,306,153.08Z" style="fill:#ebebeb"></path><path d="M397.77,218.73l-59.3-71.44a3.17,3.17,0,0,0-2.44-1.14l-28.81.27h-.92l-8.7.09a2.87,2.87,0,0,0-2.81,2.33l-7.44,37.72a3.12,3.12,0,0,0,.69,2.59l59.29,71.44a3,3,0,0,0,4.26.48L397.46,223A3,3,0,0,0,397.77,218.73Zm-.66,3.86-45.86,38.07a2.49,2.49,0,0,1-3.5-.41l-59.3-71.43a2.61,2.61,0,0,1-.57-2.15L295.32,149a2.36,2.36,0,0,1,.81-1.36,2.25,2.25,0,0,1,1.48-.53l8.65-.09h1L336,146.7a2.6,2.6,0,0,1,2,.94l59.3,71.43A2.5,2.5,0,0,1,397.11,222.59Z" style="fill:#C53F3F"></path><path d="M320.52,174.59l-4.6-5.61.38-.31,1.07,1.31,13.12-10.75-1.07-1.3.37-.31,5,6.12c4,4.89,4.47,9-.46,13.09C328.76,181.41,324.4,179.32,320.52,174.59Zm.64,0c2.19,2.67,4.77,2.31,9.21-1.33l1.15-.94c4.81-3.94,4.8-6,2.52-8.76l-.39-.47-13.11,10.74Z" style="fill:#C53F3F"></path><path d="M339.32,183.22l-6.64,5.44,1.05,1.29-.37.3-5.28-6.43.38-.31,1.05,1.29,13.12-10.75-1.06-1.29.38-.31,4.9,6c3.4,4.14,4.58,6.48,1.69,8.85-2.42,2-4.17,1.3-6.07-.65l-.06.05c1.48,2.36,1.25,3.78-1.05,5.66l-1.05.86c-1.29,1.06-1.69,1.49-1.24,2,.29.36.69.53,2.45-.48l.24.37c-2.5,1.55-3.53,1.47-5-.37-2.05-2.5-1.82-3.92,1-6.2l1.45-1.19c1.41-1.15,1.91-2,1-3.1Zm.37-.31.52.63c1.2,1.47,2.63,1.56,4.77-.2l.58-.47c2.22-1.82,1.91-2.92.77-4.31l-.54-.65Z" style="fill:#C53F3F"></path><path d="M358.7,192.89l-.37.31-.9-1.09-13.11,10.75.89,1.09-.37.31-5-6,.38-.31.89,1.09,13.12-10.75-.89-1.09.37-.31Z" style="fill:#C53F3F"></path><path d="M354.82,216.44l-2.28-2.77,7.25-17.31-12.44,10.2.89,1.09-.37.31-2.23-2.71.38-.31.89,1.09L360,195.28l-.9-1.09.38-.31,4.48,5.47-5.69,13.34,9.57-7.84-.89-1.09.37-.31,2.23,2.71-.38.31-.89-1.09Z" style="fill:#C53F3F"></path><path d="M375.33,213.18l-.37.31-.9-1.09-6.26,5.13.17.13,10.8.49-1.28-1.57.38-.31,2.84,3.47-.38.31-1-1.19-6.6-.29L367.35,231l.87,1.07-.37.3L362.64,226l.37-.31.76.93,3.65-8.45-.19-.15L361,223.15l.89,1.09-.37.31-5-6,.38-.31.89,1.09,13.12-10.75-.89-1.09.37-.31Z" style="fill:#C53F3F"></path><path d="M337.32,207.39l-.38.31-.89-1.09-13.11,10.74.89,1.09-.38.31-4.95-6,.38-.31.89,1.09,12.38-10.15-.06-.08-15.2,7.49-2-2.48,10-14-.06-.08-12.44,10.2.89,1.09-.38.31-2.2-2.7.37-.31.9,1.09L325,193.13l-.89-1.09.37-.3,4.39,5.35-8.05,11,12.16-6Z" style="fill:#C53F3F"></path><path d="M346.5,218.59,342.74,222l-.29-.36c1.7-3.22,1.83-4.88-.13-7.28l-.57-.69-6.12,5,.55.67c1.06,1.29,2.83,1.23,4.61.33l.24.3-5.86,4.8-.28-.33c1.59-2.1,1.75-3.49.61-4.88l-.39-.47-6.36,5.21.62.75a6.47,6.47,0,0,0,7.86,1.68l.33.39-4.45,3.38-8.92-10.87.44-.36,1,1.17,13-10.65-.95-1.17.43-.36Z" style="fill:#C53F3F"></path><path d="M249.12,140.51a223.24,223.24,0,0,1-44.75-4.36,1.47,1.47,0,1,1,.59-2.88c46.8,9.63,89.25.1,89.67,0a1.48,1.48,0,1,1,.66,2.88C295,136.21,275.86,140.51,249.12,140.51Z" style="fill:#263238"></path><path d="M232.6,137.13c-9,0-18.44-.27-28-.95a1.47,1.47,0,0,1,.21-2.94c46.35,3.28,89.54-3.05,90-3.11a1.47,1.47,0,1,1,.44,2.91A476.51,476.51,0,0,1,232.6,137.13Z" style="fill:#263238"></path><path d="M295,136.18h0c-.44,0-43.81-.81-90.38-4.1a1.47,1.47,0,0,1-1.36-1.58,1.45,1.45,0,0,1,1.57-1.36c46.49,3.29,89.79,4.09,90.22,4.1a1.47,1.47,0,0,1,0,2.94Z" style="fill:#263238"></path><path d="M302.33,154.49a1.33,1.33,0,0,1-.34-.05c-13.19-3.17-18.76-17.64-19-18.26a1.47,1.47,0,0,1,2.76-1c.05.13,5.26,13.63,16.92,16.43a1.48,1.48,0,0,1-.35,2.91Z" style="fill:#263238"></path></g></svg>