<?xml version="1.0" encoding="UTF-8"?>
<svg xmlns="http://www.w3.org/2000/svg" xmlns:xlink="http://www.w3.org/1999/xlink" width="24px" height="24px" viewBox="0 0 12 12" version="1.1">
<g id="surface1">
<path style=" stroke:none;fill-rule:nonzero;fill:rgb(17.254902%,24.313725%,31.372549%);fill-opacity:1;" d="M 1.5 1 C 0.949219 1 0.5 1.449219 0.5 2 L 0.5 10 C 0.5 10.550781 0.949219 11 1.5 11 L 10.5 11 C 11.050781 11 11.5 10.550781 11.5 10 L 11.5 2 C 11.5 1.449219 11.050781 1 10.5 1 Z M 1.5 1 "/>
<path style=" stroke:none;fill-rule:nonzero;fill:rgb(20.392157%,28.627451%,36.862745%);fill-opacity:1;" d="M 1.5 10.5 C 0.949219 10.5 0.5 10.050781 0.5 9.5 L 0.5 3.5 L 11.5 3.5 L 11.5 9.5 C 11.5 10.050781 11.050781 10.5 10.5 10.5 Z M 1.5 10.5 "/>
<path style=" stroke:none;fill-rule:nonzero;fill:rgb(92.54902%,94.117647%,94.509804%);fill-opacity:1;" d="M 2 2.25 L 2 2.800781 L 3 4 L 2 5.148438 L 2 5.699219 L 3.5 4 Z M 2 2.25 "/>
<path style=" stroke:none;fill-rule:nonzero;fill:rgb(20.392157%,28.627451%,36.862745%);fill-opacity:1;" d="M 1.5 1 C 0.949219 1 0.5 1.449219 0.5 2 L 0.5 8 L 11.5 8 L 11.5 2 C 11.5 1.449219 11.050781 1 10.5 1 Z M 1.5 1 "/>
<path style=" stroke:none;fill-rule:nonzero;fill:rgb(92.54902%,94.117647%,94.509804%);fill-opacity:1;" d="M 2 2.5625 L 2 3.125 L 3.5 4 L 2 4.875 L 2 5.4375 L 4.5 4 Z M 4.5 5 L 4.5 5.5 L 7 5.5 L 7 5 Z M 4.5 5 "/>
</g>
</svg>
